<svg version="1.1" xmlns="http://www.w3.org/2000/svg" viewBox="0 0 1328 479.20000000000005" width="1328" height="479.20000000000005">
  <!-- svg-source:excalidraw -->
  
  <defs>
    <style class="style-fonts">
      @font-face {
        font-family: "Virgil";
        src: url("https://excalidraw.com/Virgil.woff2");
      }
      @font-face {
        font-family: "Cascadia";
        src: url("https://excalidraw.com/Cascadia.woff2");
      }
      @font-face {
        font-family: "Assistant";
        src: url("https://excalidraw.com/Assistant-Regular.woff2");
      }
    </style>
    
  </defs>
  <rect x="0" y="0" width="1328" height="479.20000000000005" fill="#ffffff"></rect><g stroke-linecap="round" transform="translate(10 27.000000000000114) rotate(0 79.5 185.99999999999994)"><path d="M0 0 C0 0, 0 0, 0 0 M0 0 C0 0, 0 0, 0 0 M-2.67 27.9 C7.76 18.25, 13.52 7.38, 20.42 -1.97 M0.28 24.56 C7.75 17.49, 11.86 12.07, 19.5 1.43 M3.01 52.71 C16.15 32.36, 29.13 20.36, 42.19 1.64 M-1.13 48.64 C14.51 36.11, 25.94 20.55, 40.55 -1.89 M-0.5 73.28 C24.9 46.01, 46.46 18.1, 63.04 -0.14 M0.38 71.14 C21.4 48.22, 45.64 24.42, 64.97 -1.9 M3.66 100.82 C27.64 59.86, 57.28 29.25, 86.6 -3.47 M1.57 96.93 C18.96 75.87, 42.14 51.6, 86.17 1.09 M3.77 123.82 C27.27 91.69, 43.7 69.36, 109.9 1.14 M1.76 122.86 C35.63 76.55, 75.85 31.27, 108.25 -1.89 M2.57 147.69 C46.16 96.34, 89.79 37.65, 126.36 3.97 M1.46 146.87 C38.69 102.09, 74.36 59.29, 126.43 2.07 M-1.04 167.42 C42.84 118.1, 93.7 58.26, 151.47 -0.46 M1.25 171.45 C51.47 108.19, 107.12 49.85, 148.85 0.53 M-2.58 196.53 C52.08 133.78, 101.2 70.75, 158.77 9.57 M0.13 193.91 C34.82 149.63, 71.38 106.79, 159.64 10.68 M-1.87 221.7 C49.92 162.2, 107.78 103.14, 161.07 33.25 M-1.88 219.44 C50.7 159.9, 101.19 104.1, 157.72 37.61 M-3.17 240.7 C60.39 175.87, 120.07 107.7, 156.86 63.73 M1.12 245.38 C38.45 200.55, 78.8 156.81, 158.78 62.42 M2.67 265.5 C38.55 225.21, 82.74 172.92, 158.76 83.99 M0.72 267.96 C61.4 199.31, 123.58 129.69, 159.86 86.12 M0.04 295.58 C48.94 233.81, 98.25 177.19, 155.83 111.75 M-1.3 293.1 C46.99 240.3, 93.08 187.94, 159.48 111.13 M-0.02 314.23 C39.62 273.68, 74.67 233.01, 158.37 135.72 M-0.01 315.77 C44.46 264.39, 95.35 209.1, 158.88 135.04 M2.15 342.37 C38.88 295.2, 85.78 250.01, 156.47 159.33 M0.81 341.7 C31.99 303.35, 67.17 263.1, 158.47 157.4 M3.06 364.69 C36.82 327.09, 63.37 289.5, 161.51 180.57 M1.5 366.25 C51.95 308.53, 103.39 247.53, 159.05 183.95 M12.74 372.74 C54.4 330.92, 96.79 287.92, 157.99 208.26 M16.42 372.12 C50.7 336.62, 84.49 298.2, 158.15 205.9 M34.57 372.57 C61.66 344.8, 91.53 311.84, 158.6 228.74 M38.21 373.36 C75.38 326.07, 115.51 280.66, 158.09 231.81 M59.53 368.35 C87.13 342.95, 109.75 307.23, 158.93 254.6 M56.25 373.56 C98.23 329.09, 137.72 284.28, 159.1 256.2 M81.81 375.38 C109.69 341.62, 135.05 306.72, 159.58 280.76 M80.71 371.59 C100.47 348.48, 123.98 320.68, 160.09 281.57 M102.49 373.57 C115.15 351, 141.24 327.85, 157.07 303.23 M98.72 373.33 C120.69 349.44, 137.57 329.76, 158.55 303.16 M119.41 374.84 C136.3 359.48, 150.72 342.19, 161.31 327.45 M122.32 374.41 C135.47 354.76, 151.36 337.03, 159.6 330.26 M138.87 374.02 C144.34 368.46, 151.69 364.97, 162.62 355.86 M143.73 372.57 C149.38 365.31, 152.78 359.21, 160.53 353.32" stroke="#ffc9c9" stroke-width="2" fill="none"></path><path d="M-3.75 -3.35 C40.25 0.71, 69.7 1.98, 162.1 1.89 M-1.88 1.92 C37.62 -1.29, 73.51 -0.78, 159.9 -1.6 M160.54 -0.6 C161.23 88.94, 160.63 180.46, 157.65 373.09 M158.64 0.82 C160.42 90.43, 161.02 179.29, 158.6 373.06 M157.86 369.53 C100.94 368.75, 53.36 367.22, 2.85 368.89 M159.19 372.4 C99.82 373.53, 38.97 374.74, -1.91 371.26 M1.78 370.03 C-5.35 294.8, -5.86 222.58, -0.63 1.34 M0.97 371.54 C-0.03 248.45, 0.84 125.72, -1.17 -0.6" stroke="#c2255c" stroke-width="4" fill="none"></path></g><g stroke-linecap="round" transform="translate(31 47) rotate(0 55 29)"><path d="M14.5 0 C36.61 2.99, 61.69 -1.09, 95.5 0 C104.01 -3.76, 106.56 2.42, 110 14.5 C106.89 25.34, 116.21 36.94, 110 43.5 C115.25 50.53, 106.29 53.63, 95.5 58 C71.16 59.24, 49.36 54.18, 14.5 58 C5.94 56.4, -0.65 56.83, 0 43.5 C3.75 36.49, 1.48 18.04, 0 14.5 C-3.29 4.67, 3.69 -1.44, 14.5 0" stroke="none" stroke-width="0" fill="#ffc9c9"></path><path d="M14.5 0 C47.13 -3.03, 76.75 -2.69, 95.5 0 M14.5 0 C38.05 -2.9, 59.99 -2.98, 95.5 0 M95.5 0 C105.44 -0.46, 110.29 3.73, 110 14.5 M95.5 0 C104.51 -2.34, 113.98 6.05, 110 14.5 M110 14.5 C109.85 27.93, 112.73 36.09, 110 43.5 M110 14.5 C110.06 22.06, 107.89 28.56, 110 43.5 M110 43.5 C112.95 53.92, 104.23 59.1, 95.5 58 M110 43.5 C111.14 52.07, 105.07 55.56, 95.5 58 M95.5 58 C76.3 57.54, 49.28 60.05, 14.5 58 M95.5 58 C70 56.32, 41.05 56.39, 14.5 58 M14.5 58 C5.45 54.17, -0.47 53.89, 0 43.5 M14.5 58 C3.24 61, 2.88 55.36, 0 43.5 M0 43.5 C1.05 34.79, 3.43 30.02, 0 14.5 M0 43.5 C1.63 34.9, -1.53 27.49, 0 14.5 M0 14.5 C3 7.44, 6.99 1.72, 14.5 0 M0 14.5 C0.93 0.59, 6.23 1.36, 14.5 0" stroke="#c2255c" stroke-width="4" fill="none"></path></g><g transform="translate(49.170013427734375 63.5) rotate(0 36.829986572265625 12.5)"><text x="36.829986572265625" y="0" font-family="Virgil, Segoe UI Emoji" font-size="20px" fill="#c2255c" text-anchor="middle" style="white-space: pre;" direction="ltr" dominant-baseline="text-before-edge">s4 引用</text></g><g stroke-linecap="round" transform="translate(29 125) rotate(0 55 29)"><path d="M14.5 0 C42.87 1.94, 60.45 -2.93, 95.5 0 C107.13 -2.39, 105.61 9.57, 110 14.5 C105.3 23.81, 111.3 35.66, 110 43.5 C111.28 49.36, 103.33 58.88, 95.5 58 C73.84 63.16, 47.15 54.24, 14.5 58 C0.62 55.99, 4.36 57.36, 0 43.5 C1.82 34.17, -3.15 22.06, 0 14.5 C1.76 5.71, 2.65 2.14, 14.5 0" stroke="none" stroke-width="0" fill="#ffc9c9"></path><path d="M14.5 0 C39.78 -2.83, 70.47 -0.23, 95.5 0 M14.5 0 C37.52 -1, 57.2 1.97, 95.5 0 M95.5 0 C107.58 -0.25, 112.62 3.78, 110 14.5 M95.5 0 C107.14 -0.39, 111.87 9.4, 110 14.5 M110 14.5 C111.52 19.66, 109.81 33.41, 110 43.5 M110 14.5 C111.16 24.73, 110.04 34.97, 110 43.5 M110 43.5 C108.85 54.47, 105.77 59.8, 95.5 58 M110 43.5 C107.13 52.56, 104.29 61.43, 95.5 58 M95.5 58 C66.31 59.83, 36.71 60.31, 14.5 58 M95.5 58 C71.53 56.72, 49.47 57, 14.5 58 M14.5 58 C4.32 57.51, 1.19 56.46, 0 43.5 M14.5 58 C4.9 59.83, -2.72 57.24, 0 43.5 M0 43.5 C-3.18 33.38, 3.5 20.52, 0 14.5 M0 43.5 C-1.44 32.39, -1.24 24.58, 0 14.5 M0 14.5 C3.46 7.45, 2.44 1.4, 14.5 0 M0 14.5 C2.36 7.55, 2.9 -3.48, 14.5 0" stroke="#c2255c" stroke-width="4" fill="none"></path></g><g transform="translate(46.760009765625 141.5) rotate(0 37.239990234375 12.5)"><text x="37.239990234375" y="0" font-family="Virgil, Segoe UI Emoji" font-size="20px" fill="#c2255c" text-anchor="middle" style="white-space: pre;" direction="ltr" dominant-baseline="text-before-edge">s3 引用</text></g><g stroke-linecap="round" transform="translate(31 246) rotate(0 55 29)"><path d="M14.5 0 C47.01 0.9, 72.26 -0.24, 95.5 0 C108.9 -4.87, 105.85 7.14, 110 14.5 C114.05 23.91, 107.02 28.77, 110 43.5 C107.41 50.32, 103.07 56.52, 95.5 58 C72.4 57.72, 45.46 56.77, 14.5 58 C0.59 56.75, -5.09 51.03, 0 43.5 C2.01 30.12, 3.1 27.94, 0 14.5 C2.45 6.73, -0.41 -1.36, 14.5 0" stroke="none" stroke-width="0" fill="#ffc9c9"></path><path d="M14.5 0 C33.1 1.43, 49.26 2.66, 95.5 0 M14.5 0 C40.61 1.91, 63.97 1.2, 95.5 0 M95.5 0 C108.8 0.55, 110.83 3.94, 110 14.5 M95.5 0 C107.03 2.89, 111.65 2.17, 110 14.5 M110 14.5 C111.33 20.69, 114.18 29.35, 110 43.5 M110 14.5 C109.53 23.48, 110.63 35.64, 110 43.5 M110 43.5 C113.35 56.19, 102.81 55.08, 95.5 58 M110 43.5 C110.92 55.58, 105.28 55.05, 95.5 58 M95.5 58 C77.43 60, 54.18 58.97, 14.5 58 M95.5 58 C67.38 56.88, 41.1 56.81, 14.5 58 M14.5 58 C6.61 56.12, -2.59 56.83, 0 43.5 M14.5 58 C7.47 54.06, -0.36 56.1, 0 43.5 M0 43.5 C3.36 33.29, 2.04 28.9, 0 14.5 M0 43.5 C-1.51 32.14, 1.05 22.35, 0 14.5 M0 14.5 C1.83 7.11, 1.09 3.87, 14.5 0 M0 14.5 C-3.69 5.05, 3.5 1.3, 14.5 0" stroke="#c2255c" stroke-width="4" fill="none"></path></g><g transform="translate(48.45001220703125 262.5) rotate(0 37.54998779296875 12.5)"><text x="37.54998779296875" y="0" font-family="Virgil, Segoe UI Emoji" font-size="20px" fill="#c2255c" text-anchor="middle" style="white-space: pre;" direction="ltr" dominant-baseline="text-before-edge">s2 引用</text></g><g stroke-linecap="round" transform="translate(31 324) rotate(0 55 29)"><path d="M14.5 0 C37.11 3.73, 55.8 3.31, 95.5 0 C100.62 -3.76, 108.32 5.84, 110 14.5 C108.54 23.34, 104.35 30.77, 110 43.5 C113.04 49.48, 106.51 56.83, 95.5 58 C73.52 60.43, 61.35 53.84, 14.5 58 C10.42 53.26, 1.63 52.05, 0 43.5 C-3.89 38.3, -3.01 24.63, 0 14.5 C2.16 8.82, 4.69 -3.88, 14.5 0" stroke="none" stroke-width="0" fill="#ffc9c9"></path><path d="M14.5 0 C30.49 -0.91, 52.26 -1.91, 95.5 0 M14.5 0 C34.06 -0.83, 51.34 1.04, 95.5 0 M95.5 0 C101.69 2.58, 106.32 1.22, 110 14.5 M95.5 0 C105.94 -0.68, 107.14 0.82, 110 14.5 M110 14.5 C112.61 22.19, 108.45 39.04, 110 43.5 M110 14.5 C110.72 22.98, 111.3 33.45, 110 43.5 M110 43.5 C107.67 51.82, 107.41 54.03, 95.5 58 M110 43.5 C114 51.85, 102.31 58.57, 95.5 58 M95.5 58 C62.12 57.61, 32.53 59.86, 14.5 58 M95.5 58 C69.47 61.25, 42.77 60.06, 14.5 58 M14.5 58 C7.39 57.58, -3.79 53.07, 0 43.5 M14.5 58 C7.36 57.92, -1.45 55.03, 0 43.5 M0 43.5 C3.48 30.85, 0.76 26.87, 0 14.5 M0 43.5 C1.12 36.18, -0.91 24.57, 0 14.5 M0 14.5 C0.04 1.97, 6.26 -3.34, 14.5 0 M0 14.5 C3.47 6.54, 3.67 2.67, 14.5 0" stroke="#c2255c" stroke-width="4" fill="none"></path></g><g transform="translate(55.57000732421875 340.5) rotate(0 30.42999267578125 12.5)"><text x="30.42999267578125" y="0" font-family="Virgil, Segoe UI Emoji" font-size="20px" fill="#c2255c" text-anchor="middle" style="white-space: pre;" direction="ltr" dominant-baseline="text-before-edge">s 引用</text></g><g stroke-linecap="round" transform="translate(251 13) rotate(0 357.5 203)"><path d="M0 0 C0 0, 0 0, 0 0 M0 0 C0 0, 0 0, 0 0 M-2.89 22.16 C8.81 14.2, 16.83 8.81, 21.25 -1.64 M1.54 24.59 C6.48 14.66, 16.75 7.41, 19.52 0.34 M1.12 46.29 C12.26 31.1, 32.89 13.95, 42.07 3.28 M-1.02 48.67 C8.93 37.14, 24.54 20.29, 41.64 -0.14 M3.95 76.37 C24.41 48.37, 41.88 23.32, 66.9 -2.56 M0.37 74.25 C22.47 51.43, 45.41 26.15, 64.58 -1.04 M0.98 100.48 C27.66 64.38, 53.83 40.6, 81.51 -0.28 M1.52 98.51 C25.99 66.19, 49.05 39.1, 84.29 -1.78 M-2.52 124.32 C40.13 81.87, 74.91 35.83, 104.39 -1.71 M-1.64 122.59 C20.43 95.87, 42.39 69.33, 106.57 -2.06 M-1.59 148.18 C33.22 116.36, 58.82 83.86, 128.35 -1 M2.2 146.12 C32.77 106.02, 66.22 65.67, 128.18 2.05 M0.64 172.03 C33.53 129.65, 65.47 91.51, 149.39 1.71 M-0.45 171.92 C34.7 133.26, 68.9 96.02, 147.44 0.28 M-1.68 197.34 C61.33 125.66, 127.57 50.71, 170 -1.83 M1.3 194.07 C57.4 123.28, 117.85 58.23, 169.48 -0.03 M-2.1 217.63 C44.46 164.17, 91.05 110.22, 187.77 -0.16 M-1.55 219.57 C48.71 163.85, 97.92 107.71, 190.11 -0.03 M-2.61 241.56 C76.64 150.62, 155.32 65.63, 212.61 -1.99 M1.03 243.31 C79.39 151.32, 157.49 59.29, 211.11 -0.75 M-0.14 266.03 C51.19 212.08, 101.65 155.69, 232.89 -1.41 M0.82 268.61 C62.4 195.75, 124.83 125.64, 232.93 0.18 M0.05 294.79 C53.79 225.96, 112.66 158.86, 255.23 -2.09 M0.14 291.75 C72.81 205.79, 148.42 118.23, 253.83 -0.32 M1.6 316.3 C71.95 232.63, 147.12 150.13, 277.59 1.06 M0.26 317.04 C60 249.01, 120.23 180.01, 274.92 0.6 M-0.73 343.56 C78.78 252.05, 155.37 160.75, 295.7 -1.29 M-0.22 341 C118.85 203.56, 237.82 68.35, 296.1 -0.82 M0.21 367.24 C79.84 271.63, 161.4 178.95, 319.24 -0.51 M0.63 366.2 C64.76 291.55, 129.32 217, 318.09 -1.04 M0.22 389.6 C77.83 301.52, 154.33 214.42, 339.89 0.02 M0.01 390.6 C79.93 298.47, 159.33 206.55, 339.7 -0.66 M7.8 407.01 C120.15 275.56, 232.34 144.72, 358.8 0.53 M7.07 406.63 C116.7 277.29, 227.68 149.37, 360.86 -0.04 M28.7 406.2 C155.33 265.69, 282.43 119.35, 380.05 0.64 M28.56 405.97 C144.2 275.13, 258.9 144.13, 380.68 0.36 M48.15 407.4 C179.33 257.11, 309.78 108.19, 401.76 -1 M49.33 406.63 C178 256.97, 308.58 107.83, 403.19 0 M71.82 407.48 C189.53 269.1, 306.46 134.65, 424.45 -0.19 M70.54 406.38 C155.25 310.51, 239.31 213.18, 423.1 -0.19 M91.46 405.94 C216.84 263.81, 339.42 124.26, 444.85 -1.05 M92.74 405.36 C226.64 253.68, 360 100.53, 445.83 0.18 M114.03 407.19 C226.66 274.1, 344.13 140.42, 464.95 -0.11 M113.59 407.35 C222.86 279.29, 335.25 148.56, 465.86 0.68 M134.88 407.7 C270.34 245.04, 411.43 85.67, 486.47 -0.91 M134.33 406.84 C228.24 296.13, 323.72 185.63, 487.47 0.49 M153.96 405.23 C280.78 261.75, 406.07 117.64, 510.25 -1.31 M155.86 406.81 C283.6 263.16, 410.53 117.46, 509.42 -0.28 M177.75 405.26 C278.52 285.21, 385.57 166.35, 530.8 -1.66 M177.22 405.78 C312.83 246.49, 450.16 87.18, 529.72 -0.18 M197.23 407.19 C304.88 285.09, 412.9 162.3, 551.63 -1.74 M198.08 407.05 C311.94 278.27, 423.76 149.55, 551.13 0.13 M219.17 407.35 C291.88 319.87, 366.85 235.32, 573.42 0.68 M219.46 407.18 C356.81 246.16, 494.39 88.32, 573.1 -0.08 M241.5 406.92 C345.64 282.82, 454.97 159.06, 592.68 0.83 M240.5 406.08 C317 319.02, 392.22 233.55, 593.42 0.41 M262.29 405.33 C386.14 264.62, 508.47 121.69, 614.99 1.42 M262.29 406.63 C377.14 272.77, 491.68 140.58, 613.99 0.62 M283.82 404.91 C355.42 321.34, 428.72 238.18, 634.34 0.98 M283.11 405.61 C364.03 311.99, 444.71 218.4, 636 0.02 M305.63 407.59 C406.84 284.26, 510.12 167.27, 655.94 -1.31 M303.85 406.15 C436.47 254.06, 568.82 101.78, 657.66 0.74 M325.39 406.67 C407.83 307.22, 494.97 208.27, 678.93 1.39 M324.81 405.43 C397.66 323.15, 470.28 239.16, 679.11 0.01 M347.24 406.71 C448.54 288.39, 555.5 165.99, 700.5 -0.55 M345.74 406.26 C463.82 271.89, 577.51 139.66, 699.1 0.26 M366.14 405.89 C501.98 246.74, 641.27 88.69, 715.74 5.39 M366.76 406.58 C484.93 270.22, 604.2 131.99, 714.66 5.96 M388.9 406.83 C511.18 270.44, 631.3 131.33, 714.83 29.91 M388.42 406.85 C473.83 306.09, 560.06 205.95, 715.6 30.66 M408.82 405.24 C481.94 319.55, 551.9 238.01, 716.46 56.7 M409.34 405.81 C506.35 299.51, 602.07 191.05, 716.08 55.51 M430.47 407.61 C541.99 279.76, 650.53 155.85, 715.39 78.98 M431.43 406.11 C515.35 306.3, 601.24 207.4, 715.97 80.21 M450.28 407.76 C523.46 327.68, 592.01 247.87, 716.91 104.77 M452.56 406.15 C538.35 306.03, 625.08 208.96, 716 104.4 M475.42 403.98 C562.7 301.17, 655.22 192.19, 713.98 130 M472.81 406.89 C534.21 332.11, 598.61 260.83, 715 127.6 M493.18 404.76 C581.49 308.89, 663.98 215.96, 713.27 150.64 M495.76 405.97 C553.94 338.39, 614.81 269.65, 714 151.88 M518.83 403.5 C561.69 346.83, 615.61 291.94, 714.4 178.65 M516.54 407.35 C587.61 322.18, 659.2 239.03, 714.24 175.87 M534.62 406 C576.82 361.09, 618.73 316.07, 714.19 201.01 M536.95 406.11 C570.72 362.71, 608.38 322.88, 715.14 201.85 M555.38 408.42 C600.25 356.33, 648.19 302.88, 716.4 224.05 M559.72 407.59 C611.27 343.33, 667.1 280.37, 715.28 225.95 M578.27 404.76 C608.93 372.72, 632.79 342.38, 713.29 251.23 M580.72 408.18 C607.48 371.23, 638.64 335.87, 715.62 252 M599.94 405.43 C645.76 359.68, 694.42 306.96, 712.72 278.17 M598.67 406.95 C642.85 359.25, 686.11 313.29, 715.02 273.05 M622.67 403.86 C644.55 377.46, 677.93 347.6, 712.95 295.04 M619.96 405.09 C658.6 363.56, 693.23 322.4, 713.94 297.81 M640.56 408.11 C658.88 384.09, 684.41 359.13, 711.61 322.2 M643.84 406.32 C662.23 384.3, 678.24 360.1, 717.15 323.27 M665.27 407.04 C679.61 393.56, 691.3 380.67, 715.25 350.82 M664.81 406.28 C678.25 392.03, 691.83 377.53, 717.07 346.75 M684.2 409.7 C692.74 398.25, 700.43 383.78, 712.98 375.89 M686.66 407.85 C697.44 396.78, 707 385.3, 713.06 372.5 M704.27 408.01 C709.46 402.27, 710.52 400.18, 713.19 397.35 M706.43 406.37 C709.46 404.93, 711.29 402.1, 714.79 396.8" stroke="#a5d8ff" stroke-width="2" fill="none"></path><path d="M1.37 0.61 C226.18 -1.76, 451.18 0.75, 716.14 0.49 M0.07 0.21 C217.95 -2.12, 436.26 -1.72, 715.2 -0.24 M713.11 -1.72 C714.38 143.56, 713.44 289.49, 716.45 405.63 M715.24 0.17 C714.74 111.48, 713.8 223.89, 713.89 405.09 M714.56 406.43 C458.99 409.53, 202.7 407.71, 0.95 407.23 M714.61 405.66 C551.18 407.03, 387.42 408.27, -0.3 405.35 M-0.27 404.85 C-0.57 248.09, 1.62 89.22, -0.74 -0.77 M0.31 406.99 C4.45 310.89, 5.12 218.3, -0.98 -0.32" stroke="#1971c2" stroke-width="4" fill="none"></path></g><g stroke-linecap="round" transform="translate(1044 10) rotate(0 137 205)"><path d="M0 0 C0 0, 0 0, 0 0 M0 0 C0 0, 0 0, 0 0 M-0.8 26.11 C5.53 14.68, 15.44 8.81, 21.1 2.69 M2.22 24.03 C6.15 19.22, 9.46 15.13, 19.38 1.47 M-3.91 51.75 C11.05 32.83, 29.34 21.11, 40.66 3.81 M0.92 47.99 C13.52 31.6, 32.64 13.52, 42.38 0.9 M0.62 75.73 C20.87 45.01, 45.69 21.66, 65.8 1.18 M-1.43 73.53 C20.77 50.02, 42.48 24.64, 64.37 -1.91 M-0.01 94.67 C21.72 74.81, 38.79 54.62, 81.9 2.46 M0.11 97.46 C28.83 66.14, 54.96 36.17, 84.57 1.19 M1.07 125.09 C26.84 92.91, 52.11 72.63, 108.77 2.87 M-0.24 121.48 C18.47 96.43, 41.04 72.42, 105.16 -1.11 M4.14 148.29 C42.75 91.91, 86.35 43.15, 126.32 1.54 M0.2 146.63 C45.6 92.94, 91.17 38.77, 128.45 0.43 M2.8 171.62 C54.42 111.68, 108.89 47.62, 151.09 1.84 M0.34 170.3 C60.08 104.71, 117.75 38.09, 147.39 1.5 M-1.02 197.75 C58.02 130.44, 113.18 63.92, 169.21 0.76 M1.16 196.36 C41.99 145.96, 87.21 92.86, 170.59 0.87 M-1.21 216.81 C47.75 167.81, 93.44 112.47, 191.82 2.67 M-0.46 218.66 C63.38 147.01, 128.18 71.11, 191.22 1.02 M1.55 242.06 C44.19 193.68, 91.03 139.46, 212.07 0.87 M-0.56 242.48 C46.5 191.69, 93.26 138.87, 212.68 1.36 M1.95 270.03 C85.92 163.23, 180.41 61.23, 233.1 -0.92 M-0.7 269.09 C72.24 187.23, 140.34 107.28, 232.21 -0.01 M-0.61 291.28 C88.56 199.07, 171.2 99.22, 254.22 -1.79 M-0.26 293.65 C55.39 226.54, 109.57 164.01, 253.58 0.83 M1.83 316.76 C83.11 220.84, 163.8 125.98, 277.17 -0.1 M-0.75 315.89 C63.24 243.98, 129.54 169.76, 275.22 -0.14 M-0.14 340.44 C72.59 263.43, 140.97 188.33, 273.16 24.12 M-1.11 341.45 C76.31 251.71, 155.44 162.3, 273.68 25.7 M-1.7 366.58 C86.21 264.96, 171.76 168.26, 275.87 49.27 M-0.54 365.21 C90.76 261.82, 179.29 159.55, 275.74 48.96 M-0.52 390.18 C60.6 322.54, 122.25 247.23, 273.4 72.57 M1.17 390.26 C61.24 322.82, 121.22 253.03, 275.55 73.31 M2.78 413.12 C97.97 300.27, 194.27 192.03, 274.64 99.26 M2.77 411.39 C72.04 332.68, 142.09 249.24, 274.07 97.48 M21.78 410.84 C116.14 311.02, 205.48 205.27, 276.3 123.06 M24.05 412.9 C94.7 334.81, 164.4 254.67, 275.65 123.42 M44.12 409.88 C92.21 357.86, 139.24 303.3, 276.36 145.79 M45.13 413.22 C125.81 320.7, 205.69 230.78, 274.38 146.57 M65.65 414.93 C112.37 352.96, 164.54 297.87, 273.59 173.39 M66.54 412.95 C121.38 344.81, 179.83 280.53, 273.78 172.77 M86.87 413.5 C127.62 372.14, 169.43 325.55, 276.52 196.49 M86.62 411.16 C157.14 329.92, 228.35 247.57, 276.21 194.21 M109.65 412.21 C158.45 354.06, 205.44 300.55, 276.11 219.55 M109.24 413.18 C158.68 356.54, 207.98 299.32, 273.4 218.8 M129.25 409.64 C187.21 348.65, 241.5 287.62, 277.52 246.75 M130.1 411.44 C188.97 345.72, 244.25 279.89, 275.43 243.99 M148.86 411.09 C177.38 379.39, 206.32 346.65, 276.79 272.7 M152.16 411.27 C198.23 359.12, 246.51 302.55, 273.2 269.02 M173.76 415.17 C197.84 381.74, 230.31 343.46, 272.97 289.77 M173.73 411.56 C204.55 374.77, 236.81 340.02, 273.42 293.84 M195.66 414.02 C211.14 386.24, 236.25 370.52, 272.01 314.66 M191.99 411.4 C208.76 391.46, 228.16 372.28, 273.75 316.99 M215.59 410.82 C232.76 386.72, 255.36 367.21, 276.74 343.98 M212.55 410 C233.06 391.19, 247.36 372.44, 275.28 342.79 M238.22 415.01 C247.18 400.29, 257.76 381.86, 273.05 367.49 M237.32 411.74 C248.42 397.75, 258.29 386.79, 275.74 365.71 M253.6 410.71 C261.48 407.47, 272.12 395.33, 274.23 393.51 M257.73 414.17 C260.83 404.19, 270.56 395.33, 275.33 389.28" stroke="#ffec99" stroke-width="2" fill="none"></path><path d="M-0.04 2.83 C79.37 0.18, 161.59 -2.57, 274.13 0.16 M1.25 -1.15 C72.6 1.08, 142.25 1.04, 274.23 -0.2 M273.35 -2.13 C274.97 137.95, 276.08 279.85, 275.25 410.91 M274.51 -0.89 C276.46 119.78, 274.94 238.11, 273.13 409.12 M276.85 411 C185.87 404.45, 100.55 407.78, -1.67 408.95 M273.16 409.57 C187.16 406.32, 99.46 408.7, -0.22 410.63 M1.21 411.16 C-2.14 324.78, -4.93 243.44, 1.19 0.09 M0.47 411.08 C-1.34 305.11, -2.54 199.03, -0.65 0.32" stroke="#f08c00" stroke-width="4" fill="none"></path></g><g stroke-linecap="round" transform="translate(705 67) rotate(0 93.50000000000006 155)"><path d="M-0.63 2.96 C76.52 -1.96, 148.6 4.99, 184.61 3.28 M0.51 -1.87 C46.34 3.34, 97.1 1.29, 186.42 0.32 M187.7 -1.78 C180.19 75.7, 180.28 147.32, 187.88 308.87 M185.8 -0.76 C183.73 104.04, 184.24 207, 186.59 311.07 M183.37 310.11 C134.37 311.89, 85.51 309.22, 0.21 312.2 M185.45 309.01 C138.03 310.88, 90.71 308.26, 0.73 311.64 M-2.11 310.91 C-1.27 202.17, -0.49 90.21, 0.53 1.44 M0.72 309.72 C-4.04 188.76, -5.26 70.39, 0.1 -0.75" stroke="#f08c00" stroke-width="2" fill="none"></path></g><g transform="translate(729 327) rotate(0 68.482421875 16.099999999999994)"><text x="136.96484375" y="0" font-family="Helvetica, Segoe UI Emoji" font-size="28px" fill="#1e1e1e" text-anchor="end" style="white-space: pre;" direction="ltr" dominant-baseline="text-before-edge">String Pool</text></g><g transform="translate(1104.4140625 188.89999999999998) rotate(0 77.0341796875 16.099999999999994)"><text x="154.068359375" y="0" font-family="Helvetica, Segoe UI Emoji" font-size="28px" fill="#1e1e1e" text-anchor="end" style="white-space: pre;" direction="ltr" dominant-baseline="text-before-edge">Perm Space</text></g><g stroke-linecap="round" transform="translate(319.2222222222222 84) rotate(0 94.14814814814815 63)"><path d="M69.82 2.55 C81.44 -0.1, 97.73 0.34, 110.71 1.78 C123.69 3.22, 137.3 6.29, 147.69 11.19 C158.09 16.1, 166.47 23.98, 173.06 31.21 C179.64 38.44, 185.04 46.21, 187.21 54.59 C189.37 62.97, 189.6 73.16, 186.06 81.49 C182.52 89.82, 174.61 98.11, 165.98 104.57 C157.35 111.04, 145.74 116.73, 134.28 120.3 C122.82 123.86, 109.99 125.57, 97.21 125.98 C84.43 126.4, 69.42 125.73, 57.6 122.77 C45.78 119.82, 34.64 114.92, 26.3 108.23 C17.97 101.55, 12.18 91.19, 7.59 82.67 C2.99 74.14, -2 65.03, -1.26 57.09 C-0.53 49.16, 5.96 42.53, 12 35.05 C18.03 27.57, 16.07 17.49, 34.97 12.22 C53.86 6.96, 103.98 1.74, 125.36 3.45 C146.74 5.17, 164.21 21.88, 163.27 22.51 M110.33 -2.19 C123.14 -1.66, 136.21 6.63, 146.41 12.15 C156.6 17.68, 164.4 24.41, 171.51 30.98 C178.61 37.55, 186.94 43.58, 189.05 51.57 C191.16 59.56, 187.89 70.81, 184.19 78.91 C180.48 87.01, 174.32 93.92, 166.84 100.18 C159.36 106.44, 151.05 112.62, 139.33 116.46 C127.6 120.3, 109.97 122.01, 96.48 123.21 C82.99 124.41, 69.82 126.05, 58.39 123.65 C46.97 121.25, 36.79 114.71, 27.94 108.79 C19.09 102.87, 10.02 96.75, 5.29 88.15 C0.57 79.55, -0.86 66.3, -0.42 57.19 C0.01 48.07, 2.19 41.04, 7.9 33.47 C13.61 25.91, 23.92 17.33, 33.82 11.78 C43.72 6.22, 54.59 2.25, 67.3 0.14 C80.02 -1.97, 103.38 -0.89, 110.1 -0.88 C116.82 -0.88, 108.42 -1.37, 107.62 0.16" stroke="none" stroke-width="0" fill="#a5d8ff"></path><path d="M46.19 8.79 C56.36 3.8, 73.63 0.41, 86.24 -0.59 C98.86 -1.59, 110.19 -0.38, 121.89 2.76 C133.58 5.89, 146.38 12.71, 156.41 18.23 C166.43 23.75, 176.85 28.38, 182.02 35.88 C187.19 43.38, 187.93 54.14, 187.45 63.21 C186.98 72.28, 184.38 82.67, 179.17 90.29 C173.96 97.91, 165.66 103.66, 156.2 108.92 C146.74 114.19, 134.38 119.04, 122.42 121.87 C110.45 124.71, 96.98 126.78, 84.42 125.92 C71.87 125.05, 58 121.15, 47.09 116.69 C36.18 112.23, 26.2 105.96, 18.97 99.16 C11.74 92.36, 6.58 84.26, 3.72 75.87 C0.86 67.48, -0.67 56.93, 1.82 48.81 C4.31 40.69, 1.97 35.13, 18.66 27.14 C35.35 19.16, 79.61 2.79, 101.97 0.9 C124.33 -0.99, 152.77 14.86, 152.82 15.79 M102.17 1.67 C114.71 1.4, 130.51 4.12, 142.18 8.47 C153.85 12.82, 165 21.3, 172.19 27.77 C179.37 34.24, 183.32 39.15, 185.26 47.27 C187.21 55.38, 186.58 68.13, 183.85 76.46 C181.12 84.79, 175.61 90.07, 168.88 97.23 C162.15 104.39, 153.77 114.72, 143.48 119.44 C133.19 124.16, 120.3 124.46, 107.14 125.53 C93.98 126.6, 77.21 128.65, 64.52 125.87 C51.83 123.09, 39.89 114.88, 30.99 108.85 C22.1 102.81, 16.58 96.84, 11.16 89.67 C5.73 82.5, -1.05 74.89, -1.57 65.82 C-2.09 56.74, 2.88 43.29, 8.05 35.22 C13.22 27.16, 19.76 22.36, 29.43 17.41 C39.11 12.46, 54.17 8.5, 66.09 5.52 C78 2.54, 94.38 0.42, 100.93 -0.45 C107.48 -1.33, 105.32 -1.28, 105.38 0.25" stroke="#1971c2" stroke-width="4" fill="none"></path></g><g transform="translate(356.1335138786591 107.92504955475746) rotate(0 57.1640625 39.02722323049001)"><text x="57.1640625" y="0" font-family="Cascadia, Segoe UI Emoji" font-size="32.522686025408355px" fill="#1971c2" text-anchor="middle" style="white-space: pre;" direction="ltr" dominant-baseline="text-before-edge">String</text><text x="57.1640625" y="39.02722323049002" font-family="Cascadia, Segoe UI Emoji" font-size="32.522686025408355px" fill="#1971c2" text-anchor="middle" style="white-space: pre;" direction="ltr" dominant-baseline="text-before-edge">obj</text></g><g stroke-linecap="round" transform="translate(748.2222222222222 207) rotate(0 54.77777777777777 41)"><path d="M52.6 1.08 C61.56 0.66, 74.55 4.07, 82.87 7.12 C91.2 10.17, 97.99 13.97, 102.56 19.39 C107.13 24.81, 110.4 32.92, 110.29 39.63 C110.19 46.35, 106.36 53.72, 101.93 59.67 C97.49 65.62, 91.63 71.55, 83.67 75.33 C75.71 79.12, 63.51 81.94, 54.16 82.38 C44.81 82.83, 35.56 81.12, 27.58 78.01 C19.6 74.91, 10.99 69.83, 6.29 63.74 C1.59 57.64, -0.86 48.27, -0.59 41.43 C-0.33 34.59, 3.03 28.96, 7.9 22.71 C12.76 16.47, 20.15 7.85, 28.6 3.94 C37.05 0.03, 52.46 -0.02, 58.61 -0.75 C64.77 -1.47, 65.35 -1.01, 65.51 -0.41 M97.66 16.68 C104.4 20.78, 108.77 24.8, 109.97 31.21 C111.16 37.61, 108.34 48.49, 104.83 55.13 C101.31 61.77, 95.62 66.94, 88.87 71.02 C82.12 75.1, 73.39 77.96, 64.34 79.59 C55.29 81.22, 43.33 82.5, 34.58 80.78 C25.82 79.06, 17.94 74.37, 11.81 69.26 C5.69 64.15, -0.85 57.18, -2.17 50.11 C-3.49 43.03, 0.11 33.54, 3.92 26.8 C7.73 20.06, 13.7 13.61, 20.7 9.68 C27.71 5.75, 37 4.4, 45.96 3.25 C54.92 2.1, 65.88 1.24, 74.47 2.8 C83.06 4.36, 93.45 10.88, 97.49 12.6 C101.52 14.32, 99.65 12.12, 98.69 13.14" stroke="none" stroke-width="0" fill="#ffec99"></path><path d="M19.32 7.3 C25.9 2.58, 38.54 0.78, 47.93 -0.21 C57.33 -1.2, 67.24 -1.11, 75.69 1.37 C84.14 3.85, 93.42 9.19, 98.64 14.68 C103.85 20.17, 105.54 27.4, 106.97 34.33 C108.41 41.27, 110.11 49.73, 107.23 56.27 C104.34 62.81, 96.76 69.22, 89.67 73.58 C82.57 77.93, 73.6 81.72, 64.66 82.42 C55.72 83.11, 44.84 80.43, 36.03 77.74 C27.23 75.06, 17.69 71.11, 11.8 66.33 C5.91 61.54, 2.14 56.03, 0.67 49.05 C-0.8 42.07, -3.13 32.17, 2.97 24.46 C9.07 16.75, 28.63 6.83, 37.26 2.8 C45.9 -1.23, 54.62 -0.6, 54.78 0.27 M56.34 0.71 C65.02 -0.03, 75.58 4.13, 83.07 6.87 C90.56 9.62, 96.66 11.57, 101.27 17.17 C105.88 22.78, 110.06 32.75, 110.71 40.51 C111.35 48.26, 109.33 57.99, 105.13 63.71 C100.93 69.42, 93.49 71.53, 85.48 74.82 C77.47 78.12, 66.51 82.98, 57.06 83.47 C47.61 83.96, 36.82 81.41, 28.78 77.76 C20.74 74.11, 14.05 67.85, 8.82 61.55 C3.59 55.25, -2.28 47.03, -2.61 39.96 C-2.94 32.88, 2.1 24.34, 6.83 19.1 C11.56 13.86, 18.04 11.28, 25.77 8.52 C33.51 5.75, 48.34 3.49, 53.26 2.5 C58.18 1.51, 55.15 2.05, 55.3 2.56" stroke="#f08c00" stroke-width="4" fill="none"></path></g><g transform="translate(778.1568868750035 231.20862197135153) rotate(0 24.609375 16.80000000000001)"><text x="24.609375" y="0" font-family="Cascadia, Segoe UI Emoji" font-size="28px" fill="#f08c00" text-anchor="middle" style="white-space: pre;" direction="ltr" dominant-baseline="text-before-edge">"1"</text></g><g stroke-linecap="round" transform="translate(337.85185185185185 275) rotate(0 94.14814814814815 63)"><path d="M111.11 0.33 C123.5 0.63, 137.18 5.98, 147.68 10.68 C158.18 15.38, 167.78 21.36, 174.12 28.52 C180.46 35.67, 184.23 45.04, 185.71 53.6 C187.19 62.16, 186.52 71.69, 183 79.88 C179.49 88.07, 172.86 95.99, 164.64 102.77 C156.42 109.54, 144.87 116.73, 133.69 120.51 C122.51 124.29, 110.26 125.37, 97.55 125.45 C84.85 125.53, 69.09 124.51, 57.45 121.02 C45.81 117.53, 36.44 110.77, 27.73 104.54 C19.01 98.3, 9.71 91.32, 5.15 83.6 C0.59 75.87, -0.73 66.69, 0.37 58.2 C1.47 49.71, 5.54 40.13, 11.76 32.66 C17.97 25.19, 27.75 18.71, 37.65 13.37 C47.55 8.03, 58.01 2.24, 71.17 0.62 C84.34 -1, 107.44 2.89, 116.64 3.66 C125.83 4.44, 126.34 4.45, 126.34 5.25 M37.88 15.76 C46.95 10.06, 59.7 6.58, 72.05 4.14 C84.4 1.71, 98.97 -0.39, 111.98 1.15 C124.98 2.68, 139.39 8.06, 150.06 13.35 C160.74 18.65, 170.24 25.72, 176.04 32.9 C181.83 40.08, 182.96 48.03, 184.85 56.45 C186.73 64.87, 190.9 75.26, 187.32 83.42 C183.75 91.57, 172.64 98.86, 163.41 105.36 C154.17 111.87, 143.01 118.88, 131.89 122.43 C120.78 125.99, 109.39 127.38, 96.72 126.69 C84.05 126, 67.81 121.68, 55.88 118.27 C43.95 114.85, 33.66 112.25, 25.12 106.18 C16.57 100.11, 8.32 90.33, 4.62 81.85 C0.93 73.37, 2.02 63.26, 2.94 55.32 C3.86 47.39, 4.87 41.51, 10.15 34.24 C15.43 26.97, 30.16 15.51, 34.62 11.72 C39.08 7.93, 36.05 10.16, 36.91 11.5" stroke="none" stroke-width="0" fill="#a5d8ff"></path><path d="M106.07 1.64 C117.89 1.63, 131.02 4.34, 141.52 8.75 C152.02 13.15, 161.32 21.18, 169.06 28.06 C176.8 34.93, 185.29 41.91, 187.98 49.99 C190.67 58.08, 188.49 68.12, 185.2 76.55 C181.9 84.99, 175.83 93.5, 168.22 100.61 C160.6 107.72, 150.14 115.16, 139.52 119.22 C128.9 123.28, 116.91 124.33, 104.5 124.95 C92.09 125.56, 77.33 125.46, 65.06 122.9 C52.8 120.33, 40.29 115.16, 30.93 109.55 C21.57 103.93, 14.33 96.76, 8.89 89.19 C3.45 81.63, -1.69 72.57, -1.73 64.13 C-1.77 55.7, 3.01 46.52, 8.65 38.57 C14.29 30.62, 22.58 22.67, 32.12 16.44 C41.67 10.2, 51.86 3.42, 65.94 1.16 C80.02 -1.09, 106.84 2.34, 116.59 2.91 C126.34 3.47, 124.8 3.51, 124.44 4.55 M79.53 -0.98 C90.96 -2.15, 106.93 2.1, 119.78 5.11 C132.63 8.12, 146.32 11.82, 156.65 17.1 C166.99 22.38, 176.62 29.35, 181.79 36.76 C186.97 44.18, 187.78 53.38, 187.69 61.6 C187.61 69.83, 186.22 78.68, 181.27 86.13 C176.31 93.57, 167.1 100.48, 157.95 106.26 C148.8 112.03, 138.11 117.88, 126.37 120.77 C114.63 123.66, 99.81 124.24, 87.51 123.59 C75.2 122.94, 63.54 120.34, 52.55 116.85 C41.56 113.37, 30.12 109.23, 21.57 102.69 C13.03 96.16, 4.55 85.8, 1.28 77.66 C-2 69.52, -0.14 61.98, 1.93 53.86 C4 45.74, 6.27 36.76, 13.68 28.95 C21.09 21.13, 34.85 12.07, 46.39 6.96 C57.93 1.85, 77.14 -1.24, 82.91 -1.73 C88.67 -2.22, 80.65 2.76, 80.97 4.02" stroke="#1971c2" stroke-width="4" fill="none"></path></g><g transform="translate(374.76314350828875 298.9250495547575) rotate(0 57.1640625 39.02722323049002)"><text x="57.1640625" y="0" font-family="Cascadia, Segoe UI Emoji" font-size="32.522686025408355px" fill="#1971c2" text-anchor="middle" style="white-space: pre;" direction="ltr" dominant-baseline="text-before-edge">String</text><text x="57.1640625" y="39.02722323049002" font-family="Cascadia, Segoe UI Emoji" font-size="32.522686025408355px" fill="#1971c2" text-anchor="middle" style="white-space: pre;" direction="ltr" dominant-baseline="text-before-edge">obj</text></g><g stroke-linecap="round"><g transform="translate(143 350.3545214388083) rotate(0 93.58487845138748 -3.905830975717521)"><path d="M-2.42 0.38 C11.93 -0.13, 53.72 -2.59, 85.01 -3.7 C116.29 -4.81, 168.05 -5.25, 185.31 -6.3 M1.46 -1.89 C15.58 -1.89, 51.43 1.23, 83.04 -0.29 C114.65 -1.81, 173.33 -9.62, 191.14 -11.01" stroke="#1e1e1e" stroke-width="4" fill="none"></path></g><g transform="translate(143 350.3545214388083) rotate(0 93.58487845138748 -3.905830975717521)"><path d="M168.93 0.3 C174.28 -4.06, 181.52 -4.59, 189.57 -12.71 M168.09 0.56 C177.19 -3.11, 184.13 -7.44, 191.94 -10.46" stroke="#1e1e1e" stroke-width="4" fill="none"></path></g><g transform="translate(143 350.3545214388083) rotate(0 93.58487845138748 -3.905830975717521)"><path d="M167.15 -16.71 C172.93 -16.6, 180.63 -12.69, 189.57 -12.71 M166.31 -16.45 C175.99 -14.05, 183.56 -12.31, 191.94 -10.46" stroke="#1e1e1e" stroke-width="4" fill="none"></path></g></g><mask></mask><g mask="url(#mask-9ztpSOVnKZ-T4SGHWyEuM)" stroke-linecap="round"><g transform="translate(527.9997894502512 336) rotate(0 116.60801198496972 -28.77250944493767)"><path d="M2.46 -2.56 C20.33 -3.42, 69.6 6.02, 108.2 -2.79 C146.81 -11.61, 212.96 -46.51, 234.08 -55.44 M0.35 2.22 C17.86 2.82, 67.89 9.66, 106.62 -0.68 C145.35 -11.02, 211.1 -49.65, 232.73 -59.83" stroke="#e03131" stroke-width="4" fill="none"></path></g><g transform="translate(527.9997894502512 336) rotate(0 116.60801198496972 -28.77250944493767)"><path d="M214.01 -40.55 C219.36 -47.13, 228.53 -52.72, 233.56 -58.82 M215.8 -41.15 C221.19 -47.62, 226.31 -54.19, 233.56 -60.22" stroke="#e03131" stroke-width="4" fill="none"></path></g><g transform="translate(527.9997894502512 336) rotate(0 116.60801198496972 -28.77250944493767)"><path d="M206.12 -55.73 C214.25 -57.28, 226.06 -57.77, 233.56 -58.82 M207.91 -56.32 C215.78 -57.89, 223.43 -59.58, 233.56 -60.22" stroke="#e03131" stroke-width="4" fill="none"></path></g></g><mask id="mask-9ztpSOVnKZ-T4SGHWyEuM"><rect x="0" y="0" fill="#fff" width="861.2158134201907" height="493.54501888987534"></rect><rect x="599.8800354003906" y="323.5" fill="#000" width="70.23992919921875" height="25" opacity="1"></rect></mask><g transform="translate(599.8800354003906 323.5) rotate(0 45.331263834800495 -14.920035715328396)"><text x="35.119964599609375" y="0" font-family="Virgil, Segoe UI Emoji" font-size="20px" fill="#e03131" text-anchor="middle" style="white-space: pre;" direction="ltr" dominant-baseline="text-before-edge">s.intern</text></g><g mask="url(#mask-YaxJb2Vg2J_eZekq2eXuo)" stroke-linecap="round"><g transform="translate(510.99850815649336 142.99981703806054) rotate(0 114.48353628277727 3.984716604870556)"><path d="M0.28 -1.33 C18.16 0.94, 68.44 15.02, 106.53 14.38 C144.63 13.74, 208.18 -2.03, 228.84 -5.14 M-3.02 4.13 C14.62 5.49, 66.25 11.15, 104.58 10.12 C142.92 9.08, 205.75 -0.2, 226.97 -2.09" stroke="#1e1e1e" stroke-width="4" fill="none"></path></g><g transform="translate(510.99850815649336 142.99981703806054) rotate(0 114.48353628277727 3.984716604870556)"><path d="M203.66 9.46 C211.63 5.94, 216.63 4.09, 227.52 -0.96 M203.92 9.77 C209.49 5.62, 216.07 2.25, 225.99 -1.68" stroke="#1e1e1e" stroke-width="4" fill="none"></path></g><g transform="translate(510.99850815649336 142.99981703806054) rotate(0 114.48353628277727 3.984716604870556)"><path d="M201.71 -7.53 C210.25 -6.44, 215.78 -3.68, 227.52 -0.96 M201.97 -7.22 C207.93 -7.04, 215.01 -6.06, 225.99 -1.68" stroke="#1e1e1e" stroke-width="4" fill="none"></path></g></g><mask id="mask-YaxJb2Vg2J_eZekq2eXuo"><rect x="0" y="0" fill="#fff" width="839.9655807220479" height="261.03074975219835"></rect><rect x="567.5400466918944" y="143.5" fill="#000" width="98.91990661621094" height="25" opacity="1"></rect></mask><g transform="translate(567.5400466918945 143.5) rotate(0 56.37070914655129 4.12974711114461)"><text x="49.45995330810547" y="0" font-family="Virgil, Segoe UI Emoji" font-size="20px" fill="#1e1e1e" text-anchor="middle" style="white-space: pre;" direction="ltr" dominant-baseline="text-before-edge">s3.intern()</text></g><g mask="url(#mask-3kO8X-xBwvSyASpxei-Le)" stroke-linecap="round"><g transform="translate(144 276.4113392541336) rotate(0 298.8806397443516 -23.20566962706681)"><path d="M-0.18 -0.55 C56.2 -8.68, 240.57 -42.53, 340.41 -48.74 C440.24 -54.95, 555.95 -39.21, 598.83 -37.81 M-3.72 -3.31 C52.13 -11.18, 238.17 -39.87, 338.39 -46.37 C438.61 -52.87, 554.3 -43.7, 597.61 -42.31" stroke="#1e1e1e" stroke-width="4" fill="none"></path></g><g transform="translate(144 276.4113392541336) rotate(0 298.8806397443516 -23.20566962706681)"><path d="M573.34 -34.61 C581.04 -36.91, 593.02 -40.5, 597.17 -42.56 M572.86 -35.53 C580.98 -37.92, 588.04 -38.4, 597.22 -42.12" stroke="#1e1e1e" stroke-width="4" fill="none"></path></g><g transform="translate(144 276.4113392541336) rotate(0 298.8806397443516 -23.20566962706681)"><path d="M574.16 -51.7 C581.56 -47.57, 593.23 -44.75, 597.17 -42.56 M573.69 -52.61 C581.71 -49.77, 588.52 -45.02, 597.22 -42.12" stroke="#1e1e1e" stroke-width="4" fill="none"></path></g></g><mask id="mask-3kO8X-xBwvSyASpxei-Le"><rect x="0" y="0" fill="#fff" width="841.7612794887032" height="422.82267850826724"></rect><rect x="456.01001739501953" y="217.5" fill="#000" width="55.97996520996094" height="25" opacity="1"></rect></mask><g stroke-linecap="round"><g transform="translate(139 156.3899488256086) rotate(0 86.77529434338771 -6.160386569080998)"><path d="M1.77 0.39 C12.01 -2.07, 30.99 -10.19, 60.07 -12.11 C89.15 -14.04, 157.11 -10.71, 176.24 -11.16 M-0.71 -1.87 C10.58 -2.72, 36.27 -6.54, 65.7 -8.9 C95.13 -11.27, 157.48 -15.28, 175.88 -16.07" stroke="#1e1e1e" stroke-width="4" fill="none"></path></g><g transform="translate(139 156.3899488256086) rotate(0 86.77529434338771 -6.160386569080998)"><path d="M153.17 -7.26 C158.06 -6.95, 165.24 -10.43, 174.07 -15.6 M153.41 -5.99 C157.75 -8.02, 162.43 -10.45, 175.95 -15.5" stroke="#1e1e1e" stroke-width="4" fill="none"></path></g><g transform="translate(139 156.3899488256086) rotate(0 86.77529434338771 -6.160386569080998)"><path d="M152.23 -24.34 C157.52 -19.72, 164.93 -18.89, 174.07 -15.6 M152.47 -23.06 C157.12 -21.59, 161.99 -20.53, 175.95 -15.5" stroke="#1e1e1e" stroke-width="4" fill="none"></path></g></g><mask></mask><g transform="translate(456.01001739501953 217.5) rotate(0 -14.454746302676426 33.54752356805733)"><text x="27.98998260498047" y="0" font-family="Virgil, Segoe UI Emoji" font-size="20px" fill="#1e1e1e" text-anchor="middle" style="white-space: pre;" direction="ltr" dominant-baseline="text-before-edge">s2="1"</text></g><g mask="url(#mask-yGF3Hef45MqX6egE1XRDk)" stroke-linecap="round"><g transform="translate(143 78.14705498368068) rotate(0 300.7730676965165 -6.556101125575012)"><path d="M2.22 -2.48 C30.82 -9.19, 73.06 -43.35, 172.59 -38.63 C272.13 -33.91, 527.68 15.15, 599.44 25.84 M-0.01 2.34 C28.26 -5.34, 70.36 -47.14, 171.22 -42.81 C272.07 -38.48, 532.9 16.62, 605.13 28.3" stroke="#1e1e1e" stroke-width="4" fill="none"></path></g><g transform="translate(143 78.14705498368068) rotate(0 300.7730676965165 -6.556101125575012)"><path d="M578.7 33.57 C589.83 29.34, 596.19 30.61, 604.03 29.8 M579.93 33.06 C587.59 31.33, 596.13 29.66, 604.2 28.07" stroke="#1e1e1e" stroke-width="4" fill="none"></path></g><g transform="translate(143 78.14705498368068) rotate(0 300.7730676965165 -6.556101125575012)"><path d="M581.81 16.76 C592 18.21, 597.3 25.13, 604.03 29.8 M583.04 16.25 C589.66 19.9, 597.2 23.62, 604.2 28.07" stroke="#1e1e1e" stroke-width="4" fill="none"></path></g></g><mask id="mask-yGF3Hef45MqX6egE1XRDk"><rect x="0" y="0" fill="#fff" width="844.546135393033" height="245.328962699892"></rect><rect x="274.02001953125" y="25.5" fill="#000" width="79.9599609375" height="25" opacity="1"></rect></mask><g transform="translate(539.1728515625 373.9) rotate(0 66.9306640625 16.100000000000023)"><text x="133.861328125" y="0" font-family="Helvetica, Segoe UI Emoji" font-size="28px" fill="#1e1e1e" text-anchor="end" style="white-space: pre;" direction="ltr" dominant-baseline="text-before-edge">Java Heap</text></g><g transform="translate(21.5244140625 201.89999999999998) rotate(0 68.4755859375 16.099999999999994)"><text x="136.951171875" y="0" font-family="Helvetica, Segoe UI Emoji" font-size="28px" fill="#1e1e1e" text-anchor="end" style="white-space: pre;" direction="ltr" dominant-baseline="text-before-edge">Java Stack</text></g><g transform="translate(597.894287109375 426) rotate(0 99.28125 21.600000000000023)"><text x="198.5625" y="0" font-family="Cascadia, Segoe UI Emoji" font-size="36px" fill="#1e1e1e" text-anchor="end" style="white-space: pre;" direction="ltr" dominant-baseline="text-before-edge">JDK7 案例1</text></g><g transform="translate(274.02001953125 25.5) rotate(0 171.54029520822044 45.23399224357077)"><text x="39.97998046875" y="0" font-family="Virgil, Segoe UI Emoji" font-size="20px" fill="#1e1e1e" text-anchor="middle" style="white-space: pre;" direction="ltr" dominant-baseline="text-before-edge">s4 = "11"</text></g><g stroke-linecap="round" transform="translate(746.5 93.05000000000001) rotate(0 56.49999999999994 42.5)"><path d="M21.25 0 C42.8 -6.11, 57.15 -4.77, 91.75 0 C109.29 1.46, 113.21 4.68, 113 21.25 C118.03 29.87, 115.28 47.23, 113 63.75 C114.75 79.22, 110.66 82.04, 91.75 85 C65.45 83.08, 45.99 79.59, 21.25 85 C6.24 85.57, 0.92 78.34, 0 63.75 C-2.63 50.33, 2.33 36.58, 0 21.25 C1.17 11, 7.2 -2.81, 21.25 0" stroke="none" stroke-width="0" fill="#ffec99"></path><path d="M21.25 0 C46.13 -2.94, 69.66 -1.16, 91.75 0 M21.25 0 C44.48 -0.81, 67.3 -1.92, 91.75 0 M91.75 0 C104.41 0.26, 110.87 5.25, 113 21.25 M91.75 0 C106.91 4.25, 109.09 10.01, 113 21.25 M113 21.25 C114.69 31.28, 111.95 45.6, 113 63.75 M113 21.25 C112.73 39.2, 113.5 56.42, 113 63.75 M113 63.75 C111.07 76.02, 107.39 81.81, 91.75 85 M113 63.75 C113.73 81.11, 110.45 82.47, 91.75 85 M91.75 85 C75.14 81.37, 54.56 88.78, 21.25 85 M91.75 85 C73.85 84.65, 59.8 85.05, 21.25 85 M21.25 85 C4.92 82.06, -0.99 79.83, 0 63.75 M21.25 85 C5.74 85.04, 0.81 75.13, 0 63.75 M0 63.75 C-1.72 52.64, -1.76 35.31, 0 21.25 M0 63.75 C0.8 56.83, -1.6 46.43, 0 21.25 M0 21.25 C-0.62 6.5, 7.73 3.55, 21.25 0 M0 21.25 C3.99 2.57, 4.79 4.3, 21.25 0" stroke="#f08c00" stroke-width="4" fill="none"></path></g><g transform="translate(753 99.55000000000001) rotate(0 50 36)"><text x="50" y="0" font-family="Cascadia, Segoe UI Emoji" font-size="20px" fill="#f08c00" text-anchor="middle" style="white-space: pre;" direction="ltr" dominant-baseline="text-before-edge">"11" </text><text x="50" y="24" font-family="Cascadia, Segoe UI Emoji" font-size="20px" fill="#f08c00" text-anchor="middle" style="white-space: pre;" direction="ltr" dominant-baseline="text-before-edge">引用，等于</text><text x="50" y="48" font-family="Cascadia, Segoe UI Emoji" font-size="20px" fill="#f08c00" text-anchor="middle" style="white-space: pre;" direction="ltr" dominant-baseline="text-before-edge">s3</text></g></svg>