<svg version="1.1" xmlns="http://www.w3.org/2000/svg" viewBox="0 0 1051 508.20000000000005" width="1051" height="508.20000000000005">
  <!-- svg-source:excalidraw -->
  
  <defs>
    <style class="style-fonts">
      @font-face {
        font-family: "Virgil";
        src: url("https://excalidraw.com/Virgil.woff2");
      }
      @font-face {
        font-family: "Cascadia";
        src: url("https://excalidraw.com/Cascadia.woff2");
      }
      @font-face {
        font-family: "Assistant";
        src: url("https://excalidraw.com/Assistant-Regular.woff2");
      }
    </style>
    
  </defs>
  <rect x="0" y="0" width="1051" height="508.20000000000005" fill="#ffffff"></rect><g stroke-linecap="round" transform="translate(31 46) rotate(0 55 29)"><path d="M5.55 2.17 C5.55 2.17, 5.55 2.17, 5.55 2.17 M5.55 2.17 C5.55 2.17, 5.55 2.17, 5.55 2.17 M0.43 20.25 C9.53 11.48, 12.31 3.66, 17.49 0.63 M0.43 20.25 C5.39 15.61, 11.54 7.85, 17.49 0.63 M0.57 32.29 C12.17 24.13, 15.38 8.67, 28.12 0.59 M0.57 32.29 C8.14 19.74, 19.79 9.22, 28.12 0.59 M0.04 45.09 C14.16 32.41, 19.22 23.52, 38.75 0.56 M0.04 45.09 C11.67 28.3, 26.19 15.24, 38.75 0.56 M4.11 52.6 C21.87 35.74, 37.51 19.14, 49.38 0.53 M4.11 52.6 C20.69 35.29, 34.53 18.8, 49.38 0.53 M10.81 57.09 C25.6 44.05, 34.51 31.15, 60.01 0.49 M10.81 57.09 C21.01 43.84, 33.65 33.39, 60.01 0.49 M20.12 58.57 C38.73 33.31, 53.26 18.21, 70.64 0.46 M20.12 58.57 C32.45 44.62, 44.26 30.48, 70.64 0.46 M30.75 58.53 C46.88 40.34, 60.35 24.92, 81.27 0.42 M30.75 58.53 C45.82 40.36, 59.62 26.21, 81.27 0.42 M41.38 58.5 C61.53 35.34, 75.95 13.65, 91.9 0.39 M41.38 58.5 C60.43 35.91, 82.35 11.1, 91.9 0.39 M52.01 58.47 C65.3 40.18, 82.02 31.02, 101.22 1.86 M52.01 58.47 C68.64 40.8, 84.45 21.82, 101.22 1.86 M62.64 58.43 C72.57 47.04, 86.66 25.17, 107.26 7.11 M62.64 58.43 C80.55 38.57, 95.44 20.04, 107.26 7.11 M73.27 58.4 C88.2 41.75, 99.57 26.87, 110.01 16.13 M73.27 58.4 C89.11 40.1, 104.22 24.6, 110.01 16.13 M83.9 58.36 C89.71 43.29, 101.46 32.71, 110.15 28.17 M83.9 58.36 C90.79 48.12, 97.48 42.04, 110.15 28.17 M94.53 58.33 C99.29 53.8, 101.82 46.1, 110.28 40.21 M94.53 58.33 C100.42 52.98, 107.42 44.48, 110.28 40.21" stroke="#ffc9c9" stroke-width="1" fill="none"></path><path d="M14.5 0 C47.13 -3.03, 76.75 -2.69, 95.5 0 M14.5 0 C38.05 -2.9, 59.99 -2.98, 95.5 0 M95.5 0 C105.44 -0.46, 110.29 3.73, 110 14.5 M95.5 0 C104.51 -2.34, 113.98 6.05, 110 14.5 M110 14.5 C109.85 27.93, 112.73 36.09, 110 43.5 M110 14.5 C110.06 22.06, 107.89 28.56, 110 43.5 M110 43.5 C112.95 53.92, 104.23 59.1, 95.5 58 M110 43.5 C111.14 52.07, 105.07 55.56, 95.5 58 M95.5 58 C76.3 57.54, 49.28 60.05, 14.5 58 M95.5 58 C70 56.32, 41.05 56.39, 14.5 58 M14.5 58 C5.45 54.17, -0.47 53.89, 0 43.5 M14.5 58 C3.24 61, 2.88 55.36, 0 43.5 M0 43.5 C1.05 34.79, 3.43 30.02, 0 14.5 M0 43.5 C1.63 34.9, -1.53 27.49, 0 14.5 M0 14.5 C3 7.44, 6.99 1.72, 14.5 0 M0 14.5 C0.93 0.59, 6.23 1.36, 14.5 0" stroke="#c2255c" stroke-width="2" fill="none"></path></g><g transform="translate(49.170013427734375 62.5) rotate(0 36.829986572265625 12.5)"><text x="36.829986572265625" y="0" font-family="Virgil, Segoe UI Emoji" font-size="20px" fill="#c2255c" text-anchor="middle" style="white-space: pre;" direction="ltr" dominant-baseline="text-before-edge">s4 引用</text></g><g stroke-linecap="round" transform="translate(29 124) rotate(0 55 29)"><path d="M5.55 2.17 C5.55 2.17, 5.55 2.17, 5.55 2.17 M5.55 2.17 C5.55 2.17, 5.55 2.17, 5.55 2.17 M0.43 20.25 C6.52 11.31, 9.53 8.63, 17.49 0.63 M0.43 20.25 C6.09 16.35, 10.23 7.33, 17.49 0.63 M0.57 32.29 C9.98 24.07, 10.68 16.33, 28.12 0.59 M0.57 32.29 C7.82 23.03, 18.83 11.37, 28.12 0.59 M0.04 45.09 C12.68 32.7, 25.67 10.78, 38.75 0.56 M0.04 45.09 C8.52 35.4, 21.18 21.31, 38.75 0.56 M4.11 52.6 C19.03 37.18, 30.03 16.1, 49.38 0.53 M4.11 52.6 C18.58 35.73, 35.63 16.98, 49.38 0.53 M10.81 57.09 C23.02 43.06, 38.57 28.34, 60.01 0.49 M10.81 57.09 C28.1 39.25, 41.47 19.77, 60.01 0.49 M20.12 58.57 C35.29 42.8, 53.05 20.86, 70.64 0.46 M20.12 58.57 C35.06 40.4, 53.92 22.63, 70.64 0.46 M30.75 58.53 C51.2 39.55, 69.47 13.07, 81.27 0.42 M30.75 58.53 C44.6 45.14, 56.41 29.65, 81.27 0.42 M41.38 58.5 C55.87 38.11, 73.91 18.66, 91.9 0.39 M41.38 58.5 C61.16 40.28, 75.02 18.96, 91.9 0.39 M52.01 58.47 C68.31 41.6, 84.85 19.69, 101.22 1.86 M52.01 58.47 C62.04 43.06, 75.71 31.41, 101.22 1.86 M62.64 58.43 C75.59 42.05, 93.29 18.62, 107.26 7.11 M62.64 58.43 C74.1 45.69, 88.02 31.14, 107.26 7.11 M73.27 58.4 C81.24 41.49, 98.06 30.19, 110.01 16.13 M73.27 58.4 C81.96 47.38, 89.11 37.75, 110.01 16.13 M83.9 58.36 C90.25 48.84, 100.51 43.71, 110.15 28.17 M83.9 58.36 C89.59 50.31, 96.15 42.1, 110.15 28.17 M94.53 58.33 C100.3 49.65, 105.45 48.82, 110.28 40.21 M94.53 58.33 C99.34 51.68, 104.88 46.05, 110.28 40.21" stroke="#ffc9c9" stroke-width="1" fill="none"></path><path d="M14.5 0 C39.78 -2.83, 70.47 -0.23, 95.5 0 M14.5 0 C37.52 -1, 57.2 1.97, 95.5 0 M95.5 0 C107.58 -0.25, 112.62 3.78, 110 14.5 M95.5 0 C107.14 -0.39, 111.87 9.4, 110 14.5 M110 14.5 C111.52 19.66, 109.81 33.41, 110 43.5 M110 14.5 C111.16 24.73, 110.04 34.97, 110 43.5 M110 43.5 C108.85 54.47, 105.77 59.8, 95.5 58 M110 43.5 C107.13 52.56, 104.29 61.43, 95.5 58 M95.5 58 C66.31 59.83, 36.71 60.31, 14.5 58 M95.5 58 C71.53 56.72, 49.47 57, 14.5 58 M14.5 58 C4.32 57.51, 1.19 56.46, 0 43.5 M14.5 58 C4.9 59.83, -2.72 57.24, 0 43.5 M0 43.5 C-3.18 33.38, 3.5 20.52, 0 14.5 M0 43.5 C-1.44 32.39, -1.24 24.58, 0 14.5 M0 14.5 C3.46 7.45, 2.44 1.4, 14.5 0 M0 14.5 C2.36 7.55, 2.9 -3.48, 14.5 0" stroke="#c2255c" stroke-width="2" fill="none"></path></g><g transform="translate(46.760009765625 140.5) rotate(0 37.239990234375 12.5)"><text x="37.239990234375" y="0" font-family="Virgil, Segoe UI Emoji" font-size="20px" fill="#c2255c" text-anchor="middle" style="white-space: pre;" direction="ltr" dominant-baseline="text-before-edge">s3 引用</text></g><g stroke-linecap="round" transform="translate(33 245) rotate(0 55 29)"><path d="M5.55 2.17 C5.55 2.17, 5.55 2.17, 5.55 2.17 M5.55 2.17 C5.55 2.17, 5.55 2.17, 5.55 2.17 M5.02 14.97 C7.3 8.83, 11.43 5.31, 16.83 1.38 M5.02 14.97 C8.7 10.15, 10.99 5.91, 16.83 1.38 M5.16 27.01 C8.6 20.92, 14.24 14.19, 26.81 2.1 M5.16 27.01 C13.04 19.36, 20.74 8.31, 26.81 2.1 M4.64 39.8 C13.72 28.37, 21.08 17.32, 37.44 2.07 M4.64 39.8 C15.1 27.17, 22.94 18.29, 37.44 2.07 M5.42 51.09 C15.7 39.33, 30.02 30.37, 48.07 2.03 M5.42 51.09 C19.97 35.03, 32.96 20.27, 48.07 2.03 M8.84 59.36 C25.25 39.09, 39.25 23.62, 58.7 2 M8.84 59.36 C20.6 44.32, 33.13 31.85, 58.7 2 M18.16 60.83 C27.22 47.11, 42.63 33.54, 69.33 1.97 M18.16 60.83 C31.33 46.69, 41.97 35.46, 69.33 1.97 M28.79 60.8 C35.32 49.87, 49.24 34.17, 79.96 1.93 M28.79 60.8 C37.94 49.07, 47.5 34.46, 79.96 1.93 M39.42 60.76 C54.72 44, 72.6 25.29, 90.59 1.9 M39.42 60.76 C58.63 39.1, 76.65 20.49, 90.59 1.9 M50.05 60.73 C61.41 45.35, 71.1 32.61, 99.91 3.37 M50.05 60.73 C60.92 46.75, 76.05 31.8, 99.91 3.37 M60.68 60.7 C72.41 41.81, 85.32 33.33, 108.57 5.6 M60.68 60.7 C75.52 44.2, 89.09 29.22, 108.57 5.6 M71.31 60.66 C79.81 49.18, 87.4 42.39, 112.64 13.11 M71.31 60.66 C87.22 42.13, 103.28 24.21, 112.64 13.11 M81.28 61.38 C95.16 45.41, 104.64 31.78, 112.77 25.15 M81.28 61.38 C93.03 46.34, 102.4 34.27, 112.77 25.15 M91.91 61.35 C96.77 53.38, 104.71 42.95, 112.25 37.95 M91.91 61.35 C97.63 54.88, 100.75 48.09, 112.25 37.95" stroke="#ffc9c9" stroke-width="1" fill="none"></path><path d="M14.5 0 C33.1 1.43, 49.26 2.66, 95.5 0 M14.5 0 C40.61 1.91, 63.97 1.2, 95.5 0 M95.5 0 C108.8 0.55, 110.83 3.94, 110 14.5 M95.5 0 C107.03 2.89, 111.65 2.17, 110 14.5 M110 14.5 C111.33 20.69, 114.18 29.35, 110 43.5 M110 14.5 C109.53 23.48, 110.63 35.64, 110 43.5 M110 43.5 C113.35 56.19, 102.81 55.08, 95.5 58 M110 43.5 C110.92 55.58, 105.28 55.05, 95.5 58 M95.5 58 C77.43 60, 54.18 58.97, 14.5 58 M95.5 58 C67.38 56.88, 41.1 56.81, 14.5 58 M14.5 58 C6.61 56.12, -2.59 56.83, 0 43.5 M14.5 58 C7.47 54.06, -0.36 56.1, 0 43.5 M0 43.5 C3.36 33.29, 2.04 28.9, 0 14.5 M0 43.5 C-1.51 32.14, 1.05 22.35, 0 14.5 M0 14.5 C1.83 7.11, 1.09 3.87, 14.5 0 M0 14.5 C-3.69 5.05, 3.5 1.3, 14.5 0" stroke="#c2255c" stroke-width="2" fill="none"></path></g><g transform="translate(50.45001220703125 261.5) rotate(0 37.54998779296875 12.5)"><text x="37.54998779296875" y="0" font-family="Virgil, Segoe UI Emoji" font-size="20px" fill="#c2255c" text-anchor="middle" style="white-space: pre;" direction="ltr" dominant-baseline="text-before-edge">s2 引用</text></g><g stroke-linecap="round" transform="translate(34 324) rotate(0 55 29)"><path d="M5.55 2.17 C5.55 2.17, 5.55 2.17, 5.55 2.17 M5.55 2.17 C5.55 2.17, 5.55 2.17, 5.55 2.17 M0.43 20.25 C8.05 11.88, 11.91 7.84, 17.49 0.63 M0.43 20.25 C2.2 17.09, 7.3 10.7, 17.49 0.63 M0.57 32.29 C11.32 21.59, 23.46 10.14, 28.12 0.59 M0.57 32.29 C6.96 26, 14.19 17.84, 28.12 0.59 M0.04 45.09 C7.93 31.75, 18.08 23.34, 38.75 0.56 M0.04 45.09 C15.42 27.66, 28.34 13.34, 38.75 0.56 M4.11 52.6 C16.31 36.26, 28.71 17.98, 49.38 0.53 M4.11 52.6 C17.09 39.61, 30.84 25.4, 49.38 0.53 M10.81 57.09 C29.34 40.96, 47.14 17.84, 60.01 0.49 M10.81 57.09 C22.25 42.74, 36.25 29.66, 60.01 0.49 M20.12 58.57 C29.54 44.19, 46.85 36.65, 70.64 0.46 M20.12 58.57 C37.85 39.71, 55.06 18.29, 70.64 0.46 M30.75 58.53 C45.58 42.43, 65.88 22.05, 81.27 0.42 M30.75 58.53 C46.66 40, 62.76 20.47, 81.27 0.42 M41.38 58.5 C54.59 38.07, 75.43 18.35, 91.9 0.39 M41.38 58.5 C57.8 39.7, 77.66 17.83, 91.9 0.39 M52.01 58.47 C67.54 45.27, 75.66 33.69, 101.22 1.86 M52.01 58.47 C64.1 42.71, 79.1 25.76, 101.22 1.86 M62.64 58.43 C74.95 47.61, 83.61 29.12, 107.26 7.11 M62.64 58.43 C77.68 41.36, 90.39 25.67, 107.26 7.11 M73.27 58.4 C88.87 47.19, 98.22 32.27, 110.01 16.13 M73.27 58.4 C84.87 42.07, 99.52 29.73, 110.01 16.13 M83.9 58.36 C91.69 51.41, 98.38 39.73, 110.15 28.17 M83.9 58.36 C91.72 47.78, 101.45 40.28, 110.15 28.17 M94.53 58.33 C96.54 56.34, 105.16 47.01, 110.28 40.21 M94.53 58.33 C99.6 54.24, 101.95 48.89, 110.28 40.21" stroke="#ffc9c9" stroke-width="1" fill="none"></path><path d="M14.5 0 C30.49 -0.91, 52.26 -1.91, 95.5 0 M14.5 0 C34.06 -0.83, 51.34 1.04, 95.5 0 M95.5 0 C101.69 2.58, 106.32 1.22, 110 14.5 M95.5 0 C105.94 -0.68, 107.14 0.82, 110 14.5 M110 14.5 C112.61 22.19, 108.45 39.04, 110 43.5 M110 14.5 C110.72 22.98, 111.3 33.45, 110 43.5 M110 43.5 C107.67 51.82, 107.41 54.03, 95.5 58 M110 43.5 C114 51.85, 102.31 58.57, 95.5 58 M95.5 58 C62.12 57.61, 32.53 59.86, 14.5 58 M95.5 58 C69.47 61.25, 42.77 60.06, 14.5 58 M14.5 58 C7.39 57.58, -3.79 53.07, 0 43.5 M14.5 58 C7.36 57.92, -1.45 55.03, 0 43.5 M0 43.5 C3.48 30.85, 0.76 26.87, 0 14.5 M0 43.5 C1.12 36.18, -0.91 24.57, 0 14.5 M0 14.5 C0.04 1.97, 6.26 -3.34, 14.5 0 M0 14.5 C3.47 6.54, 3.67 2.67, 14.5 0" stroke="#c2255c" stroke-width="2" fill="none"></path></g><g transform="translate(58.57000732421875 340.5) rotate(0 30.42999267578125 12.5)"><text x="30.42999267578125" y="0" font-family="Virgil, Segoe UI Emoji" font-size="20px" fill="#c2255c" text-anchor="middle" style="white-space: pre;" direction="ltr" dominant-baseline="text-before-edge">s 引用</text></g><g stroke-linecap="round" transform="translate(10 26.000000000000114) rotate(0 79.5 185.99999999999994)"><path d="M-3.75 -3.35 C40.25 0.71, 69.7 1.98, 162.1 1.89 M-1.88 1.92 C37.62 -1.29, 73.51 -0.78, 159.9 -1.6 M160.54 -0.6 C161.23 88.94, 160.63 180.46, 157.65 373.09 M158.64 0.82 C160.42 90.43, 161.02 179.29, 158.6 373.06 M157.86 369.53 C100.94 368.75, 53.36 367.22, 2.85 368.89 M159.19 372.4 C99.82 373.53, 38.97 374.74, -1.91 371.26 M1.78 370.03 C-5.35 294.8, -5.86 222.58, -0.63 1.34 M0.97 371.54 C-0.03 248.45, 0.84 125.72, -1.17 -0.6" stroke="#c2255c" stroke-width="2" fill="none"></path></g><g stroke-linecap="round" transform="translate(251 12) rotate(0 228 203)"><path d="M1.62 0.72 C144.57 -1.84, 287.75 1.14, 457.35 0.58 M0.08 0.25 C138.97 -1.48, 278.36 -1.01, 456.23 -0.28 M454.11 -1.72 C455.38 143.56, 454.44 289.49, 457.45 405.63 M456.24 0.17 C455.74 111.48, 454.8 223.89, 454.89 405.09 M455.48 406.51 C292.81 409.23, 129.3 407.07, 1.13 407.46 M455.54 405.6 C351.56 406.53, 247.18 408.01, -0.36 405.23 M-0.27 404.85 C-0.57 248.09, 1.62 89.22, -0.74 -0.77 M0.31 406.99 C4.45 310.89, 5.12 218.3, -0.98 -0.32" stroke="#1971c2" stroke-width="2" fill="none"></path></g><g stroke-linecap="round" transform="translate(767 10) rotate(0 137 205)"><path d="M-0.04 2.83 C79.37 0.18, 161.59 -2.57, 274.13 0.16 M1.25 -1.15 C72.6 1.08, 142.25 1.04, 274.23 -0.2 M273.35 -2.13 C274.97 137.95, 276.08 279.85, 275.25 410.91 M274.51 -0.89 C276.46 119.78, 274.94 238.11, 273.13 409.12 M276.85 411 C185.87 404.45, 100.55 407.78, -1.67 408.95 M273.16 409.57 C187.16 406.32, 99.46 408.7, -0.22 410.63 M1.21 411.16 C-2.14 324.78, -4.93 243.44, 1.19 0.09 M0.47 411.08 C-1.34 305.11, -2.54 199.03, -0.65 0.32" stroke="#f08c00" stroke-width="2" fill="none"></path></g><g stroke-linecap="round" transform="translate(813 79) rotate(0 93.5 155)"><path d="M-0.63 2.96 C76.52 -1.96, 148.6 4.99, 184.61 3.28 M0.51 -1.87 C46.34 3.34, 97.1 1.29, 186.42 0.32 M187.7 -1.78 C180.19 75.7, 180.28 147.32, 187.88 308.87 M185.8 -0.76 C183.73 104.04, 184.24 207, 186.59 311.07 M183.37 310.11 C134.37 311.89, 85.51 309.22, 0.21 312.2 M185.45 309.01 C138.03 310.88, 90.71 308.26, 0.73 311.64 M-2.11 310.91 C-1.27 202.17, -0.49 90.21, 0.53 1.44 M0.72 309.72 C-4.04 188.76, -5.26 70.39, 0.1 -0.75" stroke="#f08c00" stroke-width="2" fill="none"></path></g><g transform="translate(837 343) rotate(0 68.482421875 16.099999999999994)"><text x="136.96484375" y="0" font-family="Helvetica, Segoe UI Emoji" font-size="28px" fill="#1e1e1e" text-anchor="end" style="white-space: pre;" direction="ltr" dominant-baseline="text-before-edge">String Pool</text></g><g transform="translate(821.4140625 29.899999999999977) rotate(0 77.0341796875 16.099999999999994)"><text x="154.068359375" y="0" font-family="Helvetica, Segoe UI Emoji" font-size="28px" fill="#1e1e1e" text-anchor="end" style="white-space: pre;" direction="ltr" dominant-baseline="text-before-edge">Perm Space</text></g><g stroke-linecap="round" transform="translate(319.2222222222222 83) rotate(0 94.14814814814815 63)"><path d="M18.82 26.96 C18.82 26.96, 18.82 26.96, 18.82 26.96 M18.82 26.96 C18.82 26.96, 18.82 26.96, 18.82 26.96 M9.67 57.33 C11.68 39.65, 21.7 33.74, 47.43 7.49 M4.78 52.42 C14.14 40.63, 24.57 30.14, 44.37 11.39 M5.25 67.79 C18.48 51.71, 23.63 42.92, 51.12 10.12 M5.48 63.19 C26.18 46.28, 42.56 26.11, 53.54 12.94 M4.82 75.07 C16.59 61.42, 34.09 47.49, 64.05 7.79 M5.67 79.9 C18.63 59.81, 32.65 45.67, 66.21 9.81 M11.78 87.99 C30.49 68.31, 41.55 52.99, 76.94 3.52 M10.87 84.52 C32.39 65.16, 50.14 39.41, 78.65 6.9 M15.54 88.48 C31.97 76.4, 47.77 56.38, 94.16 0.95 M17.27 93.38 C35.51 63.83, 58.1 40.47, 91.51 5.9 M18.17 100.11 C46.57 65.41, 76.77 34.44, 104.85 4.54 M17.95 99.09 C39.12 72.58, 59.93 51.3, 102.49 4.93 M28.7 99.93 C48.38 76.48, 71.13 51.44, 107.71 3.34 M26.74 101.9 C59.85 69.34, 87.54 31.13, 110.71 7.75 M36.93 112.19 C65.96 64.28, 98.87 26.58, 126.04 6.68 M31.59 108.77 C67.02 71.89, 104.45 30.37, 125.3 2.89 M41.56 108.9 C70.83 73.67, 102.96 36.75, 129.57 6.36 M40.27 113.45 C62.75 87.14, 88.3 58.16, 130.81 7.32 M47.86 118.46 C73.37 82, 100.94 56.06, 137.01 8.14 M45.59 114.48 C67.2 86.62, 91.74 60.14, 139.31 9.26 M52.02 123.84 C70.31 102.45, 92.12 82.14, 146.03 10.95 M51.34 120.84 C80.02 92.11, 104 60.14, 147.9 12.96 M65.27 127.09 C89.42 93.41, 114.84 61.26, 154.68 18.01 M59.93 121.91 C79.08 98.24, 101.27 76.38, 153.78 17.16 M73.1 130.1 C100.77 100.15, 119.66 68.87, 163.16 21.93 M69.21 127.63 C99.61 91.15, 127.11 55.85, 159.48 21.73 M76 126.4 C111.6 93.87, 139.13 53.75, 167.96 27.6 M80.76 129.76 C100.98 102.61, 127.65 73.97, 168.66 25.86 M91.17 133.77 C111.61 103.63, 128.15 78.56, 172.96 27.82 M87.16 129.93 C109.11 109.69, 127.53 85.86, 172.67 29.25 M96.77 131.89 C128.39 96.7, 149.13 72.29, 178.29 32.15 M99.79 126.75 C132.72 91.08, 164.24 54.56, 181.06 36.34 M109.68 123.53 C135 101.04, 160.96 71.4, 187.34 38.08 M112.18 128.36 C126.14 105.76, 141.7 89.56, 188.12 40.92 M120.93 127.8 C140.29 110.53, 154.48 92.96, 192.43 47.63 M123 123.19 C140.67 107.57, 154.86 92.26, 188.09 50.19 M138.09 116.09 C153.02 102.69, 168.32 93.81, 188.95 62.2 M139.96 119.32 C150.86 105.45, 165.05 90.15, 188.9 65.01 M154.27 109.98 C160.62 100.84, 171.55 94.28, 181.12 79.73 M156.46 111.82 C167.53 102.13, 175.79 93.07, 183.48 84.54" stroke="#a5d8ff" stroke-width="1" fill="none"></path><path d="M46.19 8.79 C56.36 3.8, 73.63 0.41, 86.24 -0.59 C98.86 -1.59, 110.19 -0.38, 121.89 2.76 C133.58 5.89, 146.38 12.71, 156.41 18.23 C166.43 23.75, 176.85 28.38, 182.02 35.88 C187.19 43.38, 187.93 54.14, 187.45 63.21 C186.98 72.28, 184.38 82.67, 179.17 90.29 C173.96 97.91, 165.66 103.66, 156.2 108.92 C146.74 114.19, 134.38 119.04, 122.42 121.87 C110.45 124.71, 96.98 126.78, 84.42 125.92 C71.87 125.05, 58 121.15, 47.09 116.69 C36.18 112.23, 26.2 105.96, 18.97 99.16 C11.74 92.36, 6.58 84.26, 3.72 75.87 C0.86 67.48, -0.67 56.93, 1.82 48.81 C4.31 40.69, 1.97 35.13, 18.66 27.14 C35.35 19.16, 79.61 2.79, 101.97 0.9 C124.33 -0.99, 152.77 14.86, 152.82 15.79 M102.17 1.67 C114.71 1.4, 130.51 4.12, 142.18 8.47 C153.85 12.82, 165 21.3, 172.19 27.77 C179.37 34.24, 183.32 39.15, 185.26 47.27 C187.21 55.38, 186.58 68.13, 183.85 76.46 C181.12 84.79, 175.61 90.07, 168.88 97.23 C162.15 104.39, 153.77 114.72, 143.48 119.44 C133.19 124.16, 120.3 124.46, 107.14 125.53 C93.98 126.6, 77.21 128.65, 64.52 125.87 C51.83 123.09, 39.89 114.88, 30.99 108.85 C22.1 102.81, 16.58 96.84, 11.16 89.67 C5.73 82.5, -1.05 74.89, -1.57 65.82 C-2.09 56.74, 2.88 43.29, 8.05 35.22 C13.22 27.16, 19.76 22.36, 29.43 17.41 C39.11 12.46, 54.17 8.5, 66.09 5.52 C78 2.54, 94.38 0.42, 100.93 -0.45 C107.48 -1.33, 105.32 -1.28, 105.38 0.25" stroke="#1971c2" stroke-width="2" fill="none"></path></g><g transform="translate(356.1335138786591 106.92504955475746) rotate(0 57.1640625 39.02722323049001)"><text x="57.1640625" y="0" font-family="Cascadia, Segoe UI Emoji" font-size="32.522686025408355px" fill="#1971c2" text-anchor="middle" style="white-space: pre;" direction="ltr" dominant-baseline="text-before-edge">String</text><text x="57.1640625" y="39.02722323049002" font-family="Cascadia, Segoe UI Emoji" font-size="32.522686025408355px" fill="#1971c2" text-anchor="middle" style="white-space: pre;" direction="ltr" dominant-baseline="text-before-edge">obj</text></g><g stroke-linecap="round" transform="translate(847.2222222222222 229) rotate(0 54.777777777777715 41)"><path d="M2.65 24.83 C2.65 24.83, 2.65 24.83, 2.65 24.83 M2.65 24.83 C2.65 24.83, 2.65 24.83, 2.65 24.83 M4.94 54.29 C9.46 35.42, 22.95 25.77, 40.49 2.9 M1.78 50.98 C11.9 40.54, 18.6 27.47, 44.26 0.68 M8.6 66.41 C22.97 52.03, 34.1 36.2, 66.27 1.18 M12.16 65.25 C28.98 43.71, 45.81 23.85, 64.11 0.7 M24.22 73.09 C42.08 46.8, 60.64 30.23, 81.96 6.95 M26.22 72.32 C37.05 54.07, 53.32 41.25, 81.34 5.68 M36.56 74.92 C64.2 54.52, 79.72 27.57, 97.04 13.01 M40.47 77.61 C54.23 61.61, 68.38 48.85, 95.11 14.54 M55.44 81.87 C69.09 73.27, 78.23 61.17, 103.51 27.23 M58.12 83.2 C68.32 68.98, 82.76 54.14, 104.72 29.49 M88.74 78.13 C88.44 66.6, 96.25 58.78, 105.42 52.08 M87.61 76.17 C91.08 68, 96.19 62.08, 106.74 49.05" stroke="#ffec99" stroke-width="2" fill="none"></path><path d="M19.32 7.3 C25.9 2.58, 38.54 0.78, 47.93 -0.21 C57.33 -1.2, 67.24 -1.11, 75.69 1.37 C84.14 3.85, 93.42 9.19, 98.64 14.68 C103.85 20.17, 105.54 27.4, 106.97 34.33 C108.41 41.27, 110.11 49.73, 107.23 56.27 C104.34 62.81, 96.76 69.22, 89.67 73.58 C82.57 77.93, 73.6 81.72, 64.66 82.42 C55.72 83.11, 44.84 80.43, 36.03 77.74 C27.23 75.06, 17.69 71.11, 11.8 66.33 C5.91 61.54, 2.14 56.03, 0.67 49.05 C-0.8 42.07, -3.13 32.17, 2.97 24.46 C9.07 16.75, 28.63 6.83, 37.26 2.8 C45.9 -1.23, 54.62 -0.6, 54.78 0.27 M56.34 0.71 C65.02 -0.03, 75.58 4.13, 83.07 6.87 C90.56 9.62, 96.66 11.57, 101.27 17.17 C105.88 22.78, 110.06 32.75, 110.71 40.51 C111.35 48.26, 109.33 57.99, 105.13 63.71 C100.93 69.42, 93.49 71.53, 85.48 74.82 C77.47 78.12, 66.51 82.98, 57.06 83.47 C47.61 83.96, 36.82 81.41, 28.78 77.76 C20.74 74.11, 14.05 67.85, 8.82 61.55 C3.59 55.25, -2.28 47.03, -2.61 39.96 C-2.94 32.88, 2.1 24.34, 6.83 19.1 C11.56 13.86, 18.04 11.28, 25.77 8.52 C33.51 5.75, 48.34 3.49, 53.26 2.5 C58.18 1.51, 55.15 2.05, 55.3 2.56" stroke="#f08c00" stroke-width="4" fill="none"></path></g><g transform="translate(877.1568868750035 253.20862197135153) rotate(0 24.609375 16.80000000000001)"><text x="24.609375" y="0" font-family="Cascadia, Segoe UI Emoji" font-size="28px" fill="#f08c00" text-anchor="middle" style="white-space: pre;" direction="ltr" dominant-baseline="text-before-edge">"1"</text></g><g stroke-linecap="round" transform="translate(337.85185185185185 274) rotate(0 94.14814814814815 63)"><path d="M8.94 38.24 C8.94 38.24, 8.94 38.24, 8.94 38.24 M8.94 38.24 C8.94 38.24, 8.94 38.24, 8.94 38.24 M-1.89 61.8 C16.42 43.94, 31.85 26.32, 41.75 11.69 M0.73 62.08 C10.94 49.5, 19.11 36.07, 42.95 13.84 M1.84 71.46 C27.47 47.06, 49.13 21.44, 55.49 6.94 M2.2 69.7 C25.02 45.94, 46.9 17.82, 57.16 4.61 M8.24 76.26 C23.6 59.1, 42.57 32.14, 71.24 -2.05 M2.81 79.51 C17.02 63.44, 30.02 48.56, 73.36 0.42 M9.68 85.62 C39.74 55.07, 61.13 24.24, 84.93 5.83 M7.1 86.28 C34.59 56.04, 61.75 25.5, 84.69 2.05 M17.2 95.7 C35.82 71.59, 54.93 50.04, 93.86 5.52 M15.32 92.1 C38.96 65.23, 64 37.91, 91.62 2.75 M20.34 96.59 C36.65 72.79, 61.24 53.39, 105.2 4.82 M18.72 101.08 C44.91 70.71, 68.73 38.92, 103.96 0.75 M25.45 103.44 C51.19 76.94, 70.75 53.5, 115.03 6.68 M27.27 104.05 C55.47 71.07, 83.32 39.44, 115.25 5.18 M30.07 108.02 C47.87 87.64, 74.86 63.96, 121.29 1.82 M31.52 109.71 C56.49 79.33, 80.13 51.33, 121.23 6.24 M41.93 113.64 C68.66 76.48, 98.76 48.32, 128.83 9.86 M39.01 113.06 C65.38 80.29, 96.08 47.75, 132.28 7.89 M50.1 114.55 C69.43 93.82, 84.3 71.43, 140.56 6.75 M48.84 114.41 C79.33 79.47, 113.86 39.79, 142.01 8.78 M53.28 121.26 C87.93 85.13, 116.91 46.87, 151.05 16.56 M53.44 118.24 C83.47 91.84, 106.89 64.83, 148.31 13.73 M66.88 119.45 C89.41 91.15, 118.48 64.38, 157.61 18.41 M61.03 123.7 C95.98 81.83, 130.96 44.24, 153.84 18.12 M70.64 120.07 C96.13 96.5, 118.29 68.22, 157.29 19.58 M72.77 124.22 C94.3 100.88, 111.95 78.04, 162.56 20.57 M81.17 125.75 C115.91 91.82, 142.91 57.29, 164.02 28.63 M82.63 125.54 C105.14 96.39, 131.69 65.77, 166.14 25.68 M96.2 127.65 C119.71 96.35, 149.84 56.79, 169.55 36.03 M91.15 124.07 C114.23 101.15, 134.45 78.74, 172.51 32.19 M98.98 123.33 C127.34 95.01, 151.53 65.46, 175.2 36.79 M101.24 124.37 C119.71 102.76, 141.27 78.62, 178.96 37.15 M117.97 126.9 C131.44 107.91, 149.07 89.69, 184.93 43.08 M115.35 122.83 C143.07 96.41, 166.68 66.21, 184.61 44.13 M126.61 123.6 C150.65 97.97, 167.78 70.42, 188.33 51.6 M126.63 121.83 C148.13 96.62, 173.16 69.32, 186.97 52.17 M142.32 120.75 C155.07 100.15, 167.02 87.3, 190.43 68.01 M139.38 118.24 C150.89 103.95, 165.6 91.79, 187.04 63.69 M164.05 102.48 C169.92 95.64, 172.57 94.95, 180.6 86.96 M162.07 105.73 C170.02 100.29, 174.78 93.69, 179.72 86.19" stroke="#a5d8ff" stroke-width="1" fill="none"></path><path d="M106.07 1.64 C117.89 1.63, 131.02 4.34, 141.52 8.75 C152.02 13.15, 161.32 21.18, 169.06 28.06 C176.8 34.93, 185.29 41.91, 187.98 49.99 C190.67 58.08, 188.49 68.12, 185.2 76.55 C181.9 84.99, 175.83 93.5, 168.22 100.61 C160.6 107.72, 150.14 115.16, 139.52 119.22 C128.9 123.28, 116.91 124.33, 104.5 124.95 C92.09 125.56, 77.33 125.46, 65.06 122.9 C52.8 120.33, 40.29 115.16, 30.93 109.55 C21.57 103.93, 14.33 96.76, 8.89 89.19 C3.45 81.63, -1.69 72.57, -1.73 64.13 C-1.77 55.7, 3.01 46.52, 8.65 38.57 C14.29 30.62, 22.58 22.67, 32.12 16.44 C41.67 10.2, 51.86 3.42, 65.94 1.16 C80.02 -1.09, 106.84 2.34, 116.59 2.91 C126.34 3.47, 124.8 3.51, 124.44 4.55 M79.53 -0.98 C90.96 -2.15, 106.93 2.1, 119.78 5.11 C132.63 8.12, 146.32 11.82, 156.65 17.1 C166.99 22.38, 176.62 29.35, 181.79 36.76 C186.97 44.18, 187.78 53.38, 187.69 61.6 C187.61 69.83, 186.22 78.68, 181.27 86.13 C176.31 93.57, 167.1 100.48, 157.95 106.26 C148.8 112.03, 138.11 117.88, 126.37 120.77 C114.63 123.66, 99.81 124.24, 87.51 123.59 C75.2 122.94, 63.54 120.34, 52.55 116.85 C41.56 113.37, 30.12 109.23, 21.57 102.69 C13.03 96.16, 4.55 85.8, 1.28 77.66 C-2 69.52, -0.14 61.98, 1.93 53.86 C4 45.74, 6.27 36.76, 13.68 28.95 C21.09 21.13, 34.85 12.07, 46.39 6.96 C57.93 1.85, 77.14 -1.24, 82.91 -1.73 C88.67 -2.22, 80.65 2.76, 80.97 4.02" stroke="#1971c2" stroke-width="2" fill="none"></path></g><g transform="translate(374.76314350828875 297.9250495547575) rotate(0 57.1640625 39.02722323049002)"><text x="57.1640625" y="0" font-family="Cascadia, Segoe UI Emoji" font-size="32.522686025408355px" fill="#1971c2" text-anchor="middle" style="white-space: pre;" direction="ltr" dominant-baseline="text-before-edge">String</text><text x="57.1640625" y="39.02722323049002" font-family="Cascadia, Segoe UI Emoji" font-size="32.522686025408355px" fill="#1971c2" text-anchor="middle" style="white-space: pre;" direction="ltr" dominant-baseline="text-before-edge">obj</text></g><g stroke-linecap="round"><g transform="translate(146 348.15715112102487) rotate(0 92.1000962106612 -3.1480935942476833)"><path d="M-2.42 0.38 C28.55 -0.63, 153.91 -5.83, 184.71 -6.69 M1.46 -1.89 C32.2 -2.39, 151.62 -2.01, 182.74 -3.28" stroke="#1e1e1e" stroke-width="4" fill="none"></path></g><g transform="translate(146 348.15715112102487) rotate(0 92.1000962106612 -3.1480935942476833)"><path d="M159.66 6.01 C165.24 2.19, 172.7 2.18, 181.17 -4.98 M158.82 6.27 C168.23 3.33, 175.48 -0.29, 183.55 -2.73" stroke="#1e1e1e" stroke-width="4" fill="none"></path></g><g transform="translate(146 348.15715112102487) rotate(0 92.1000962106612 -3.1480935942476833)"><path d="M159.38 -11.08 C164.99 -10.43, 172.53 -5.97, 181.17 -4.98 M158.54 -10.83 C167.98 -7.67, 175.34 -5.18, 183.55 -2.73" stroke="#1e1e1e" stroke-width="4" fill="none"></path></g></g><mask></mask><g mask="url(#mask-9ztpSOVnKZ-T4SGHWyEuM)" stroke-linecap="round"><g transform="translate(527.9997894502512 335) rotate(0 159.2139108223763 -21.151921287015)"><path d="M2.46 -2.56 C20.33 -3.42, 55.4 3.48, 108.2 -2.79 C161.01 -9.07, 283.97 -33.81, 319.29 -40.2 M0.35 2.22 C17.86 2.82, 53.69 7.12, 106.62 -0.68 C159.55 -8.48, 282.11 -36.95, 317.95 -44.59" stroke="#e03131" stroke-width="4" fill="none"></path></g><g transform="translate(527.9997894502512 335) rotate(0 159.2139108223763 -21.151921287015)"><path d="M295.03 -30.31 C301.83 -35.25, 312.4 -39.16, 318.77 -43.58 M296.82 -30.91 C303.54 -35.76, 310.01 -40.72, 318.77 -44.98" stroke="#e03131" stroke-width="4" fill="none"></path></g><g transform="translate(527.9997894502512 335) rotate(0 159.2139108223763 -21.151921287015)"><path d="M291.33 -47.01 C299.52 -46.37, 311.33 -44.67, 318.77 -43.58 M293.13 -47.6 C300.96 -47.08, 308.62 -46.66, 318.77 -44.98" stroke="#e03131" stroke-width="4" fill="none"></path></g></g><mask id="mask-9ztpSOVnKZ-T4SGHWyEuM"><rect x="0" y="0" fill="#fff" width="946.4276110950038" height="477.30384257403"></rect><rect x="599.8800354003906" y="322.5" fill="#000" width="70.23992919921875" height="25" opacity="1"></rect></mask><g transform="translate(599.8800354003906 322.5) rotate(0 87.93716267220708 -7.825148377703442)"><text x="35.119964599609375" y="0" font-family="Virgil, Segoe UI Emoji" font-size="20px" fill="#e03131" text-anchor="middle" style="white-space: pre;" direction="ltr" dominant-baseline="text-before-edge">s.intern</text></g><g mask="url(#mask-YaxJb2Vg2J_eZekq2eXuo)" stroke-linecap="round"><g transform="translate(503 142) rotate(0 167.4382439445344 3.6811246302248435)"><path d="M0.28 -1.33 C19.66 -0.39, 59.78 4.95, 115.53 6.38 C171.28 7.81, 297.94 6.96, 334.75 7.25 M-3.02 4.13 C16.12 4.16, 57.6 1.09, 113.58 2.12 C169.57 3.15, 295.51 8.8, 332.88 10.3" stroke="#1e1e1e" stroke-width="4" fill="none"></path></g><g transform="translate(503 142) rotate(0 167.4382439445344 3.6811246302248435)"><path d="M308.1 18.24 C316.48 15.7, 321.88 14.83, 333.43 11.43 M308.36 18.54 C314.28 15.31, 321.24 12.87, 331.9 10.71" stroke="#1e1e1e" stroke-width="4" fill="none"></path></g><g transform="translate(503 142) rotate(0 167.4382439445344 3.6811246302248435)"><path d="M308.82 1.15 C317.05 3.25, 322.25 7.01, 333.43 11.43 M309.08 1.46 C314.71 2.6, 321.48 4.53, 331.9 10.71" stroke="#1e1e1e" stroke-width="4" fill="none"></path></g></g><mask id="mask-YaxJb2Vg2J_eZekq2eXuo"><rect x="0" y="0" fill="#fff" width="937.8764878890688" height="249.3622492604497"></rect><rect x="568.5400466918945" y="134.5" fill="#000" width="98.91990661621094" height="25" opacity="1"></rect></mask><g transform="translate(568.5400466918945 134.5) rotate(0 100.32690865181507 11.988525661741335)"><text x="49.45995330810547" y="0" font-family="Virgil, Segoe UI Emoji" font-size="20px" fill="#1e1e1e" text-anchor="middle" style="white-space: pre;" direction="ltr" dominant-baseline="text-before-edge">s3.intern()</text></g><g mask="url(#mask-3kO8X-xBwvSyASpxei-Le)" stroke-linecap="round"><g transform="translate(148 274.38463427051505) rotate(0 346.94516479865786 -24.192317135257525)"><path d="M-0.18 -0.55 C65.04 -9.01, 277.55 -47.82, 393.41 -50.71 C509.27 -53.6, 644.89 -22.95, 694.96 -17.9 M-3.72 -3.31 C60.97 -11.51, 275.15 -45.16, 391.39 -48.34 C507.63 -51.52, 643.24 -27.44, 693.74 -22.4" stroke="#1e1e1e" stroke-width="4" fill="none"></path></g><g transform="translate(148 274.38463427051505) rotate(0 346.94516479865786 -24.192317135257525)"><path d="M668.95 -16.62 C676.85 -18.19, 689.02 -21.07, 693.3 -22.65 M668.48 -17.53 C676.77 -19.34, 683.99 -19.23, 693.35 -22.21" stroke="#1e1e1e" stroke-width="4" fill="none"></path></g><g transform="translate(148 274.38463427051505) rotate(0 346.94516479865786 -24.192317135257525)"><path d="M671.13 -33.58 C678.21 -28.78, 689.57 -25.29, 693.3 -22.65 M670.66 -34.5 C678.44 -31.11, 684.99 -25.81, 693.35 -22.21" stroke="#1e1e1e" stroke-width="4" fill="none"></path></g></g><mask id="mask-3kO8X-xBwvSyASpxei-Le"><rect x="0" y="0" fill="#fff" width="941.8903295973157" height="422.7692685410301"></rect><rect x="503.01001739501953" y="213.50000000000006" fill="#000" width="75.97996520996094" height="25" opacity="1"></rect></mask><g stroke-linecap="round"><g transform="translate(142 158.3899488256086) rotate(0 87.27466655160131 -7.660381073764512)"><path d="M1.77 0.39 C30.85 -2.74, 143.88 -13.67, 173.12 -16.09 M-0.71 -1.87 C29.42 -3.38, 149.15 -10.02, 178.75 -12.88" stroke="#1e1e1e" stroke-width="4" fill="none"></path></g><g transform="translate(142 158.3899488256086) rotate(0 87.27466655160131 -7.660381073764512)"><path d="M156.21 -3.67 C161.05 -3.46, 168.18 -7.05, 176.93 -12.41 M156.45 -2.4 C160.76 -4.52, 165.4 -7.03, 178.81 -12.31" stroke="#1e1e1e" stroke-width="4" fill="none"></path></g><g transform="translate(142 158.3899488256086) rotate(0 87.27466655160131 -7.660381073764512)"><path d="M154.97 -20.73 C160.28 -16.22, 167.73 -15.5, 176.93 -12.41 M155.21 -19.45 C159.88 -18.07, 164.78 -17.09, 178.81 -12.31" stroke="#1e1e1e" stroke-width="4" fill="none"></path></g></g><mask></mask><g mask="url(#mask-yGF3Hef45MqX6egE1XRDk)" stroke-linecap="round"><g transform="translate(144 76.14705498368068) rotate(0 349.71855524300474 0.35849674208068905)"><path d="M2.22 -2.48 C38.15 -8.36, 100.74 -39.82, 216.59 -33.63 C332.44 -27.43, 616.59 23.34, 697.33 34.67 M-0.01 2.34 C35.6 -4.5, 98.05 -43.61, 215.22 -37.81 C332.39 -32.01, 621.81 24.81, 703.02 37.13" stroke="#1e1e1e" stroke-width="4" fill="none"></path></g><g transform="translate(144 76.14705498368068) rotate(0 349.71855524300474 0.35849674208068905)"><path d="M676.65 42.7 C687.76 38.37, 694.09 39.53, 701.93 38.63 M677.87 42.19 C685.52 40.36, 694.04 38.6, 702.09 36.9" stroke="#1e1e1e" stroke-width="4" fill="none"></path></g><g transform="translate(144 76.14705498368068) rotate(0 349.71855524300474 0.35849674208068905)"><path d="M679.55 25.85 C689.79 27.21, 695.14 34.04, 701.93 38.63 M680.77 25.34 C687.45 28.91, 695.03 32.55, 702.09 36.9" stroke="#1e1e1e" stroke-width="4" fill="none"></path></g></g><mask id="mask-yGF3Hef45MqX6egE1XRDk"><rect x="0" y="0" fill="#fff" width="943.4371104860095" height="247.1581584352034"></rect><rect x="319.02001953125" y="28.5" fill="#000" width="79.9599609375" height="25" opacity="1"></rect></mask><g transform="translate(539.1728515625 372.9) rotate(0 66.9306640625 16.100000000000023)"><text x="133.861328125" y="0" font-family="Helvetica, Segoe UI Emoji" font-size="28px" fill="#1e1e1e" text-anchor="end" style="white-space: pre;" direction="ltr" dominant-baseline="text-before-edge">Java Heap</text></g><g transform="translate(21.5244140625 200.89999999999998) rotate(0 68.4755859375 16.099999999999994)"><text x="136.951171875" y="0" font-family="Helvetica, Segoe UI Emoji" font-size="28px" fill="#1e1e1e" text-anchor="end" style="white-space: pre;" direction="ltr" dominant-baseline="text-before-edge">Java Stack</text></g><g transform="translate(503.01001739501953 213.5) rotate(0 -9.390221248370153 35.16052031037617)"><text x="37.98998260498047" y="0" font-family="Virgil, Segoe UI Emoji" font-size="20px" fill="#1e1e1e" text-anchor="middle" style="white-space: pre;" direction="ltr" dominant-baseline="text-before-edge">s2 = "1"</text></g><g transform="translate(334.988037109375 455) rotate(0 142.734375 21.600000000000023)"><text x="285.46875" y="0" font-family="Cascadia, Segoe UI Emoji" font-size="36px" fill="#1e1e1e" text-anchor="end" style="white-space: pre;" direction="ltr" dominant-baseline="text-before-edge">JDK7 第一段代码</text></g><g transform="translate(319.02001953125 28.5) rotate(0 176.4857827547087 47.01308815495979)"><text x="39.97998046875" y="0" font-family="Virgil, Segoe UI Emoji" font-size="20px" fill="#1e1e1e" text-anchor="middle" style="white-space: pre;" direction="ltr" dominant-baseline="text-before-edge">s4 = "11"</text></g><g stroke-linecap="round" transform="translate(841 108) rotate(0 65 47)"><path d="M3.15 9.36 C3.15 9.36, 3.15 9.36, 3.15 9.36 M3.15 9.36 C3.15 9.36, 3.15 9.36, 3.15 9.36 M0.79 36.46 C9.8 21.78, 24.3 11.13, 32.28 0.24 M0.79 36.46 C12.74 23.52, 24.48 7.06, 32.28 0.24 M0.4 61.3 C16.43 45.98, 29.51 36.7, 53.54 0.17 M0.4 61.3 C15.08 43.78, 27.41 30.8, 53.54 0.17 M3.29 82.36 C24.74 57.79, 45.22 29.59, 74.14 0.85 M3.29 82.36 C25.26 55.59, 49.59 28.79, 74.14 0.85 M14.71 93.61 C43.01 58.52, 75.16 20.2, 95.4 0.78 M14.71 93.61 C40.29 63.47, 67.75 32.3, 95.4 0.78 M35.31 94.3 C52.95 73.57, 72.16 47.32, 116.01 1.47 M35.31 94.3 C57.3 69.9, 75.01 46.47, 116.01 1.47 M56.57 94.23 C79.58 69.87, 103.96 41.45, 128.08 11.97 M56.57 94.23 C74 77.31, 88.45 59.76, 128.08 11.97 M77.83 94.16 C89.67 77.08, 109.12 57.73, 130.97 33.03 M77.83 94.16 C90.66 76.98, 107.29 63.39, 130.97 33.03 M99.09 94.09 C111.12 85.19, 121.1 69.76, 130.58 57.87 M99.09 94.09 C106.16 84.63, 117.89 75.87, 130.58 57.87" stroke="#ffec99" stroke-width="2" fill="none"></path><path d="M23.5 0 C53.52 -4.66, 88.89 -0.28, 106.5 0 M23.5 0 C54.51 -0.89, 84.91 1.6, 106.5 0 M106.5 0 C122.45 -0.13, 127.85 4.53, 130 23.5 M106.5 0 C125.63 4.19, 132.56 4.1, 130 23.5 M130 23.5 C129.33 37.47, 128.23 58.2, 130 70.5 M130 23.5 C131.21 36.89, 129.81 51.2, 130 70.5 M130 70.5 C128.74 85, 124.95 97.75, 106.5 94 M130 70.5 C127.16 82.25, 123.9 94.03, 106.5 94 M106.5 94 C71.08 96.57, 40.6 90.85, 23.5 94 M106.5 94 C76.24 96.34, 45.93 95.19, 23.5 94 M23.5 94 C8.01 94.89, -2.84 85.5, 0 70.5 M23.5 94 C10.3 95, 4.18 84.89, 0 70.5 M0 70.5 C-0.16 50.62, 2.24 38.91, 0 23.5 M0 70.5 C-0.33 58.35, 0.79 46.82, 0 23.5 M0 23.5 C-2.33 5.52, 9.12 1.02, 23.5 0 M0 23.5 C1.2 4.8, 9.25 -1.17, 23.5 0" stroke="#f08c00" stroke-width="4" fill="none"></path></g><g transform="translate(853.2216796875 120.5) rotate(0 52.7783203125 34.5)"><text x="52.7783203125" y="0" font-family="Helvetica, Segoe UI Emoji" font-size="20px" fill="#f08c00" text-anchor="middle" style="white-space: pre;" direction="ltr" dominant-baseline="text-before-edge">"11" </text><text x="52.7783203125" y="23" font-family="Helvetica, Segoe UI Emoji" font-size="20px" fill="#f08c00" text-anchor="middle" style="white-space: pre;" direction="ltr" dominant-baseline="text-before-edge">引用，等于 </text><text x="52.7783203125" y="46" font-family="Helvetica, Segoe UI Emoji" font-size="20px" fill="#f08c00" text-anchor="middle" style="white-space: pre;" direction="ltr" dominant-baseline="text-before-edge">s3</text></g></svg>